<svg id="icon" xmlns="http://www.w3.org/2000/svg" xmlns:xlink="http://www.w3.org/1999/xlink" width="108.173" height="97.383" viewBox="0 0 108.173 97.383">
  <defs>
    <linearGradient id="linear-gradient" x1="0.134" y1="0.879" x2="0.771" y2="0.035" gradientUnits="objectBoundingBox">
      <stop offset="0" stop-color="#d2deff" stop-opacity="0"/>
      <stop offset="0.685" stop-color="#d2deff"/>
    </linearGradient>
  </defs>
  <path id="Path_5674" data-name="Path 5674" d="M3.4,84.133c3.957,13.522,15.361,41.107,34.633,38.631C57.357,120.28,49.809,95.355,67.5,91.939c7.789-1.5,13.069,11.977,20.875,11.558C98.433,102.957,103.55,93,106.36,84.638c5.957-17.74-2.964-47.823-23.844-53.032-18.221-4.546-20.353,17.717-36.2,11.25C37.415,39.221,38.3,28.367,27.459,26.177-5.352,19.551-1.869,66.139,3.4,84.133Z" transform="translate(0 -25.537)" fill="url(#linear-gradient)"/>
  <g id="Group_10096" data-name="Group 10096" transform="translate(10.76 4.742)" opacity="0.2">
    <path id="Path_5675" data-name="Path 5675" d="M106.585,125.753a1.181,1.181,0,0,0-.814,1.122v3.337a1.183,1.183,0,0,0,1.183,1.183h19.117a1.183,1.183,0,0,0,1.183-1.183v-3.141a1.18,1.18,0,0,0-1.077-1.178,13.291,13.291,0,0,1-6.066-1.7l-.019-.012a2.477,2.477,0,0,1-.966-2.97l6.776-17.6h22.576l4.878,13.334a14.856,14.856,0,0,1,1.289,5.156,2.883,2.883,0,0,1-1.719,2.846,14.559,14.559,0,0,1-4.708.949,1.184,1.184,0,0,0-1.092,1.179v3.143a1.183,1.183,0,0,0,1.183,1.183H178.6a1.183,1.183,0,0,0,1.183-1.183v-3.26a1.181,1.181,0,0,0-.868-1.139,6.942,6.942,0,0,1-2.677-1.571,13.28,13.28,0,0,1-3.222-5.156L147.646,53.738a1.183,1.183,0,0,0-1.1-.755h-6.679a1.183,1.183,0,0,0-1.1.754l-23.753,60.946Q111.344,124.19,106.585,125.753Zm30.9-52.239,8.675,23.659H128.377Z" transform="translate(-94.184 -51.927)" fill="#6583fe"/>
    <path id="Path_5676" data-name="Path 5676" d="M56.353,57.061a1.056,1.056,0,0,0,0-2.113H54.576V50.1h.366a1.056,1.056,0,1,0,0-2.113H52.1a1.056,1.056,0,0,0,0,2.113h.366v4.853h-.477a1.056,1.056,0,0,0,0,2.113h.477V75.789h-.477a1.056,1.056,0,0,0,0,2.113h.477V96.63h-.477a1.056,1.056,0,1,0,0,2.113h.477v18.728h-.477a1.056,1.056,0,1,0,0,2.113h.477v7.154H52.1a1.056,1.056,0,0,0,0,2.113h2.845a1.056,1.056,0,1,0,0-2.113h-.366v-7.154h1.776a1.056,1.056,0,0,0,0-2.113H54.576V98.743h1.776a1.056,1.056,0,0,0,0-2.113H54.576V77.9h1.776a1.056,1.056,0,0,0,0-2.113H54.576V57.061Z" transform="translate(-50.93 -47.983)" fill="#6583fe"/>
    <path id="Path_5677" data-name="Path 5677" d="M111.794,146.551a1.056,1.056,0,0,0-1.056-1.056H96.652a1.056,1.056,0,0,0,0,2.113h14.085A1.056,1.056,0,0,0,111.794,146.551Z" transform="translate(-86.159 -124.893)" fill="#6583fe"/>
    <path id="Path_5678" data-name="Path 5678" d="M175.837,452.733a1.056,1.056,0,0,0-1.056,1.056v.366h-6.509v-1.121a1.056,1.056,0,1,0-2.113,0v1.121H154.08v-1.121a1.056,1.056,0,1,0-2.113,0v1.121H139.888v-1.121a1.056,1.056,0,1,0-2.113,0v1.121H125.7v-1.121a1.056,1.056,0,1,0-2.113,0v1.121H111.505v-1.121a1.056,1.056,0,1,0-2.113,0v1.121h-6.509v-.366a1.056,1.056,0,1,0-2.113,0v2.845a1.056,1.056,0,1,0,2.113,0v-.366h6.509v.366a1.056,1.056,0,1,0,2.113,0v-.366h12.079v.366a1.056,1.056,0,1,0,2.113,0v-.366h12.079v.366a1.056,1.056,0,1,0,2.113,0v-.366h12.079v.366a1.056,1.056,0,1,0,2.113,0v-.366h12.079v.366a1.056,1.056,0,1,0,2.113,0v-.366h6.509v.366a1.056,1.056,0,1,0,2.113,0v-2.845A1.056,1.056,0,0,0,175.837,452.733Z" transform="translate(-90.241 -366.623)" fill="#6583fe"/>
  </g>
  <path id="Path_5679" data-name="Path 5679" d="M176.236,104.243a13.28,13.28,0,0,1-3.222-5.156L147.646,33.738a1.183,1.183,0,0,0-1.1-.755h-6.679a1.183,1.183,0,0,0-1.1.754L115.009,94.683q-3.665,9.506-8.424,11.071a1.181,1.181,0,0,0-.814,1.122v3.337a1.183,1.183,0,0,0,1.183,1.183h19.117a1.183,1.183,0,0,0,1.183-1.183v-3.141a1.18,1.18,0,0,0-1.077-1.178,13.29,13.29,0,0,1-6.066-1.7l-.019-.012a2.477,2.477,0,0,1-.966-2.97L125.9,83.6h22.576l4.878,13.334a14.856,14.856,0,0,1,1.289,5.156,2.884,2.884,0,0,1-1.719,2.846,14.559,14.559,0,0,1-4.708.949,1.184,1.184,0,0,0-1.092,1.179v3.143a1.183,1.183,0,0,0,1.183,1.183H178.6a1.183,1.183,0,0,0,1.183-1.183v-3.26a1.181,1.181,0,0,0-.868-1.139A6.943,6.943,0,0,1,176.236,104.243ZM128.377,77.174l9.107-23.659,8.675,23.659Z" transform="translate(-83.424 -31.41)" fill="#00a072"/>
  <g id="Group_10097" data-name="Group 10097" transform="translate(10.76 0.517)">
    <path id="Path_5680" data-name="Path 5680" d="M217.94,125.162h-.009a1.056,1.056,0,0,0-.986.677L207.839,149.5a1.056,1.056,0,0,0,.986,1.436h17.783a1.056,1.056,0,0,0,.992-1.42l-8.675-23.659A1.056,1.056,0,0,0,217.94,125.162Zm-7.577,23.659,7.545-19.6,7.187,19.6Z" transform="translate(-174.632 -104.63)" fill="#044982"/>
    <path id="Path_5681" data-name="Path 5681" d="M102.312,100.806a2.234,2.234,0,0,0-1.54,2.125v3.337a2.242,2.242,0,0,0,2.24,2.24h3.935a1.056,1.056,0,0,0,0-2.113h-3.936a.127.127,0,0,1-.127-.127v-3.337a.124.124,0,0,1,.087-.118c3.522-1.158,6.492-4.983,9.078-11.69L135.8,30.176a.127.127,0,0,1,.118-.081H142.6a.128.128,0,0,1,.118.081l3.238,8.342a1.056,1.056,0,1,0,1.97-.765l-3.238-8.342a2.254,2.254,0,0,0-2.088-1.429h-6.679a2.226,2.226,0,0,0-2.087,1.426L110.08,90.359c-2.312,6-4.926,9.513-7.768,10.447Z" transform="translate(-90.242 -27.983)" fill="#044982"/>
    <path id="Path_5682" data-name="Path 5682" d="M221.178,159.644a5.946,5.946,0,0,1-2.26-1.345,12.337,12.337,0,0,1-2.936-4.746L196.434,103.2a1.056,1.056,0,0,0-1.97.765l19.548,50.359a14.147,14.147,0,0,0,3.507,5.561,8,8,0,0,0,3.094,1.8.125.125,0,0,1,.093.12v3.26a.127.127,0,0,1-.127.127H190.292a.127.127,0,0,1-.127-.127v-3.143a.128.128,0,0,1,.119-.126,15.348,15.348,0,0,0,5.074-1.046,3.925,3.925,0,0,0,2.326-3.8,15.653,15.653,0,0,0-1.359-5.533l-4.873-13.32a1.056,1.056,0,0,0-.992-.693H167.885a1.056,1.056,0,0,0-.986.677l-6.776,17.6a3.549,3.549,0,0,0,1.38,4.237l.019.012a14.164,14.164,0,0,0,6.551,1.869.125.125,0,0,1,.108.125v3.141a.127.127,0,0,1-.127.127h-8a1.056,1.056,0,1,0,0,2.113h8a2.242,2.242,0,0,0,2.24-2.24v-3.141a2.248,2.248,0,0,0-2.045-2.231,12.362,12.362,0,0,1-5.582-1.539l-.018-.011a1.427,1.427,0,0,1-.554-1.7l6.515-16.926h21.113l4.625,12.641.011.029a13.973,13.973,0,0,1,1.213,4.764,1.847,1.847,0,0,1-1.11,1.89,13.714,13.714,0,0,1-4.344.853,2.252,2.252,0,0,0-2.065,2.232v3.143a2.242,2.242,0,0,0,2.24,2.24H220.58a2.242,2.242,0,0,0,2.24-2.24V161.8a2.245,2.245,0,0,0-1.642-2.157Z" transform="translate(-136.167 -86.774)" fill="#044982"/>
    <path id="Path_5683" data-name="Path 5683" d="M56.353,37.061a1.056,1.056,0,0,0,0-2.113H54.576V30.1h.366a1.056,1.056,0,0,0,0-2.113H52.1a1.056,1.056,0,0,0,0,2.113h.366v4.853h-.477a1.056,1.056,0,0,0,0,2.113h.477V55.789h-.477a1.056,1.056,0,0,0,0,2.113h.477V76.63h-.477a1.056,1.056,0,1,0,0,2.113h.477V97.471h-.477a1.056,1.056,0,1,0,0,2.113h.477v7.154H52.1a1.056,1.056,0,0,0,0,2.113h2.845a1.056,1.056,0,0,0,0-2.113h-.366V99.584h1.776a1.056,1.056,0,1,0,0-2.113H54.576V78.743h1.776a1.056,1.056,0,1,0,0-2.113H54.576V57.9h1.776a1.056,1.056,0,0,0,0-2.113H54.576V37.061Z" transform="translate(-50.93 -27.983)" fill="#044982"/>
    <path id="Path_5684" data-name="Path 5684" d="M96.653,88.946h3.521a1.056,1.056,0,0,0,0-2.113H96.653a1.056,1.056,0,1,0,0,2.113Z" transform="translate(-86.16 -74.399)" fill="#044982"/>
    <path id="Path_5685" data-name="Path 5685" d="M96.653,108.277h14.085a1.056,1.056,0,0,0,0-2.113H96.653a1.056,1.056,0,0,0,0,2.113Z" transform="translate(-86.16 -89.646)" fill="#044982"/>
    <path id="Path_5686" data-name="Path 5686" d="M111.795,126.551a1.056,1.056,0,0,0-1.056-1.056H96.653a1.056,1.056,0,0,0,0,2.113h14.085A1.056,1.056,0,0,0,111.795,126.551Z" transform="translate(-86.16 -104.893)" fill="#044982"/>
    <path id="Path_5687" data-name="Path 5687" d="M175.838,432.733a1.056,1.056,0,0,0-1.056,1.056v.366h-6.509v-1.121a1.056,1.056,0,0,0-2.113,0v1.121H154.081v-1.121a1.056,1.056,0,0,0-2.113,0v1.121H139.889v-1.121a1.056,1.056,0,0,0-2.113,0v1.121H125.7v-1.121a1.056,1.056,0,0,0-2.113,0v1.121H111.506v-1.121a1.056,1.056,0,0,0-2.113,0v1.121h-6.509v-.366a1.056,1.056,0,0,0-2.113,0v2.845a1.056,1.056,0,1,0,2.113,0v-.366h6.509v.366a1.056,1.056,0,1,0,2.113,0v-.366h12.079v.366a1.056,1.056,0,1,0,2.113,0v-.366h12.079v.366a1.056,1.056,0,1,0,2.113,0v-.366h12.079v.366a1.056,1.056,0,1,0,2.113,0v-.366H166.16v.366a1.056,1.056,0,1,0,2.113,0v-.366h6.509v.366a1.056,1.056,0,1,0,2.113,0v-2.845A1.057,1.057,0,0,0,175.838,432.733Z" transform="translate(-90.242 -346.623)" fill="#044982"/>
  </g>
  <path id="Path_5688" data-name="Path 5688" d="M183.644,34.744a1.057,1.057,0,0,1-1.056-1.056,1.269,1.269,0,0,0-1.268-1.268,1.056,1.056,0,1,1,0-2.113,1.269,1.269,0,0,0,1.268-1.268,1.056,1.056,0,0,1,2.113,0,1.269,1.269,0,0,0,1.268,1.268,1.056,1.056,0,1,1,0,2.113,1.269,1.269,0,0,0-1.268,1.268A1.056,1.056,0,0,1,183.644,34.744Z" transform="translate(-142.179 -27.466)" fill="#01eca5"/>
  <path id="Path_5689" data-name="Path 5689" d="M268.634,338.1a1.056,1.056,0,0,1-1.056-1.056,1.269,1.269,0,0,0-1.268-1.268,1.056,1.056,0,1,1,0-2.113,1.269,1.269,0,0,0,1.268-1.268,1.056,1.056,0,0,1,2.113,0,1.269,1.269,0,0,0,1.268,1.268,1.056,1.056,0,0,1,0,2.113,1.269,1.269,0,0,0-1.268,1.268A1.056,1.056,0,0,1,268.634,338.1Z" transform="translate(-209.212 -266.73)" fill="#df6951"/>
  <path id="Path_5690" data-name="Path 5690" d="M402.644,115.338a1.056,1.056,0,0,1-1.056-1.056,1.269,1.269,0,0,0-1.268-1.268,1.056,1.056,0,0,1,0-2.113,1.269,1.269,0,0,0,1.268-1.268,1.056,1.056,0,1,1,2.113,0,1.269,1.269,0,0,0,1.268,1.268,1.056,1.056,0,0,1,0,2.113,1.269,1.269,0,0,0-1.268,1.268A1.056,1.056,0,0,1,402.644,115.338Z" transform="translate(-314.909 -91.033)" fill="#ffba7e"/>
  <path id="Path_5691" data-name="Path 5691" d="M433.321,220.2a1.056,1.056,0,0,1-.747-1.8l2.113-2.113a1.056,1.056,0,0,1,1.494,1.494l-2.113,2.113A1.053,1.053,0,0,1,433.321,220.2Z" transform="translate(-340.937 -175.738)" fill="#6583fe"/>
  <path id="Path_5692" data-name="Path 5692" d="M137.634,168.382a1.056,1.056,0,0,1-.747-1.8L139,164.466a1.056,1.056,0,0,1,1.494,1.494l-2.113,2.113A1.053,1.053,0,0,1,137.634,168.382Z" transform="translate(-107.722 -134.87)" fill="#6583fe"/>
</svg>
