<svg xmlns="http://www.w3.org/2000/svg" width="96.703" height="109.267" viewBox="0 0 96.703 109.267">
  <g id="icon" transform="translate(-40.484 0)">
    <path id="Path_5751" data-name="Path 5751" d="M154.6.091c-20.449,1.846-22.427,41.066-31.247,61.161-4.37,9.957-14.677,20.23-12.86,31.965,2.05,13.239,15.557,17.089,25.969,15.822,25.764-3.134,36.9-30.1,38.584-55.658C176.085,37.626,179.378-2.146,154.6.091Z" transform="translate(-52.543)" fill="#c8e6ff"/>
    <path id="Path_5752" data-name="Path 5752" d="M116.217,112.026h-55.8v-5.273a2.134,2.134,0,0,0-2.134-2.134H41.651a2.134,2.134,0,0,0-2.134,2.134v5.273h-5.6a4.481,4.481,0,0,0-4.482,4.482v50.028a4.481,4.481,0,0,0,4.482,4.482H89.44v4.654a2.134,2.134,0,0,0,2.134,2.134h16.634a2.134,2.134,0,0,0,2.134-2.134v-4.654h5.874a4.481,4.481,0,0,0,4.482-4.482V116.508A4.481,4.481,0,0,0,116.217,112.026Z" transform="translate(11.049 -82.292)" fill="#2626bc" opacity="0.11"/>
    <path id="Path_5753" data-name="Path 5753" d="M141.19,122.272V172.3a4.481,4.481,0,0,1-4.482,4.482h-82.3a4.481,4.481,0,0,1-4.482-4.482V122.272a4.481,4.481,0,0,1,4.482-4.482h82.3A4.481,4.481,0,0,1,141.19,122.272Z" transform="translate(-5.07 -92.652)" fill="#00a072"/>
    <path id="Path_5754" data-name="Path 5754" d="M398.3,267.629h16.077v-7.978H398.3a1.067,1.067,0,0,0-1.067,1.067v5.843A1.067,1.067,0,0,0,398.3,267.629Z" transform="translate(-278.259 -204.238)" fill="#d2deff"/>
    <path id="Path_5755" data-name="Path 5755" d="M49.927,170H141.19v14.416H49.927Z" transform="translate(-5.07 -133.72)" fill="#4369fd"/>
    <path id="Path_5756" data-name="Path 5756" d="M118.069,170v3.908a2.134,2.134,0,0,1-2.134,2.134H99.3a2.135,2.135,0,0,1-2.134-2.134V170Z" transform="translate(-42.229 -133.72)" fill="#2d58e0"/>
    <path id="Path_5757" data-name="Path 5757" d="M115.936,103.983H99.3a2.134,2.134,0,0,1-2.134-2.134V85.215A2.134,2.134,0,0,1,99.3,83.081h16.634a2.134,2.134,0,0,1,2.134,2.134v16.634A2.134,2.134,0,0,1,115.936,103.983Z" transform="translate(-42.229 -65.351)" fill="#df6951"/>
    <path id="Path_5758" data-name="Path 5758" d="M174.114,85.217V101.85a2.134,2.134,0,0,1-2.134,2.134h-3.562a2.134,2.134,0,0,0,2.134-2.134V85.217a2.132,2.132,0,0,0-2.134-2.134h3.562A2.132,2.132,0,0,1,174.114,85.217Z" transform="translate(-98.274 -65.353)" fill="#9f4937"/>
    <path id="Path_5759" data-name="Path 5759" d="M349.866,348.976H333.232a2.134,2.134,0,0,1-2.134-2.134V330.207a2.134,2.134,0,0,1,2.134-2.134h16.634A2.134,2.134,0,0,1,352,330.207v16.634A2.134,2.134,0,0,1,349.866,348.976Z" transform="translate(-226.236 -258.059)" fill="#df6951"/>
    <path id="Path_5760" data-name="Path 5760" d="M408.044,330.21v16.633a2.134,2.134,0,0,1-2.134,2.134h-3.562a2.133,2.133,0,0,0,2.134-2.134V330.21a2.132,2.132,0,0,0-2.134-2.134h3.562A2.132,2.132,0,0,1,408.044,330.21Z" transform="translate(-282.28 -258.061)" fill="#a74e3c"/>
    <path id="Path_5761" data-name="Path 5761" d="M82.651,316.832H79.125a1.067,1.067,0,1,1,0-2.134h3.526a1.067,1.067,0,1,1,0,2.134Z" transform="translate(-27.198 -247.538)" fill="#ffc4df"/>
    <path id="Path_5762" data-name="Path 5762" d="M108.423,342.832h-29.3a1.067,1.067,0,0,1,0-2.134h29.3a1.067,1.067,0,0,1,0,2.134Z" transform="translate(-27.198 -267.989)" fill="#044982"/>
    <path id="Path_5763" data-name="Path 5763" d="M108.423,361.912h-29.3a1.067,1.067,0,0,1,0-2.134h29.3a1.067,1.067,0,0,1,0,2.134Z" transform="translate(-27.198 -282.997)" fill="#044982"/>
    <circle id="Ellipse_10329" data-name="Ellipse 10329" cx="1.193" cy="1.193" r="1.193" transform="translate(104 42.295)" fill="#b7c5ff"/>
    <circle id="Ellipse_10330" data-name="Ellipse 10330" cx="1.193" cy="1.193" r="1.193" transform="translate(107.608 42.295)" fill="#b7c5ff"/>
    <circle id="Ellipse_10331" data-name="Ellipse 10331" cx="1.193" cy="1.193" r="1.193" transform="translate(111.218 42.295)" fill="#b7c5ff"/>
    <path id="Path_5764" data-name="Path 5764" d="M130.478,105.161h-.33v-2.194h1.39a1.067,1.067,0,0,0,0-2.134h-1.39v-.544a1.067,1.067,0,0,0-2.134,0v.544h-.33a3.231,3.231,0,0,0,0,6.462h.33v2.194h-1.39a1.067,1.067,0,1,0,0,2.134h1.39v.544a1.067,1.067,0,0,0,2.134,0v-.544h.33a3.231,3.231,0,1,0,0-6.462Zm-2.8,0a1.1,1.1,0,0,1,0-2.194h.33v2.194Zm2.8,4.328h-.33v-2.194h.33a1.1,1.1,0,1,1,0,2.194Z" transform="translate(-63.691 -78.046)" fill="#fff"/>
    <path id="Path_5765" data-name="Path 5765" d="M132.777,85.488H78.047V81.282a3.2,3.2,0,0,0-3.2-3.2H58.212a3.2,3.2,0,0,0-3.2,3.2v4.206H50.478a5.555,5.555,0,0,0-5.549,5.549v39.3a1.067,1.067,0,0,0,2.134,0V113.181h89.129v27.884a3.419,3.419,0,0,1-3.415,3.415h-4.807V133.566a3.2,3.2,0,0,0-3.2-3.2H108.135a3.2,3.2,0,0,0-3.2,3.2V144.48H50.478a3.419,3.419,0,0,1-3.415-3.415v-4.73a1.067,1.067,0,1,0-2.134,0v4.73a5.555,5.555,0,0,0,5.549,5.549h54.456V150.2a3.2,3.2,0,0,0,3.2,3.2h16.634a3.2,3.2,0,0,0,3.2-3.2v-3.586h4.807a5.555,5.555,0,0,0,5.549-5.549V91.036A5.555,5.555,0,0,0,132.777,85.488ZM125.836,150.2a1.068,1.068,0,0,1-1.067,1.067H108.135a1.068,1.068,0,0,1-1.067-1.067V133.566a1.068,1.068,0,0,1,1.067-1.067h16.634a1.068,1.068,0,0,1,1.067,1.067ZM57.144,81.282a1.068,1.068,0,0,1,1.067-1.067H74.846a1.068,1.068,0,0,1,1.067,1.067V97.916a1.068,1.068,0,0,1-1.067,1.067H58.212a1.068,1.068,0,0,1-1.067-1.067Zm-6.667,6.34H55.01v9.009H47.063V91.036A3.418,3.418,0,0,1,50.478,87.622Zm-3.415,23.426V98.765h8.065a3.2,3.2,0,0,0,3.083,2.353H74.846a3.2,3.2,0,0,0,3.2-3.2V87.622h54.73a3.419,3.419,0,0,1,3.415,3.415v5.594H83.431a1.067,1.067,0,0,0,0,2.134h52.76v12.283Z" transform="translate(-1.139 -61.418)" fill="#2626bc"/>
    <path id="Path_5766" data-name="Path 5766" d="M352.671,352.422a2.777,2.777,0,1,1,2.777-2.777A2.78,2.78,0,0,1,352.671,352.422Zm0-3.419a.643.643,0,1,0,.643.643A.643.643,0,0,0,352.671,349Z" transform="translate(-241.021 -272.843)" fill="#ffdbed"/>
    <path id="Path_5767" data-name="Path 5767" d="M387,386.752a2.777,2.777,0,1,1,2.777-2.777A2.78,2.78,0,0,1,387,386.752Zm0-3.419a.643.643,0,1,0,.643.643A.643.643,0,0,0,387,383.333Z" transform="translate(-268.023 -299.847)" fill="#ffdbed"/>
    <path id="Path_5768" data-name="Path 5768" d="M361.944,366.045a1.067,1.067,0,0,1-.754-1.821l6.058-6.058a1.067,1.067,0,0,1,1.509,1.509l-6.058,6.058A1.064,1.064,0,0,1,361.944,366.045Z" transform="translate(-249.66 -281.483)" fill="#ffdbed"/>
    <g id="Group_10100" data-name="Group 10100" transform="translate(50.924 55.192)">
      <path id="Path_5769" data-name="Path 5769" d="M82.012,267.168H80.874a2.522,2.522,0,0,1-2.519-2.519v-3.512a2.522,2.522,0,0,1,2.519-2.519h1.138a2.522,2.522,0,0,1,2.519,2.519v3.512A2.522,2.522,0,0,1,82.012,267.168Zm-1.138-6.416a.385.385,0,0,0-.385.385v3.512a.385.385,0,0,0,.385.385h1.138a.385.385,0,0,0,.385-.385v-3.512a.385.385,0,0,0-.385-.385Z" transform="translate(-78.355 -258.618)" fill="#d2deff"/>
      <path id="Path_5770" data-name="Path 5770" d="M117.627,263.514h-2.993a1.067,1.067,0,0,1-1.067-1.067v-2.761a1.067,1.067,0,0,1,2.134,0v1.694h1.926a1.067,1.067,0,1,1,0,2.134Z" transform="translate(-106.052 -258.619)" fill="#d2deff"/>
      <path id="Path_5771" data-name="Path 5771" d="M130.256,267.037a1.067,1.067,0,0,1-1.067-1.067v-6.284a1.067,1.067,0,1,1,2.134,0v6.284A1.067,1.067,0,0,1,130.256,267.037Z" transform="translate(-118.34 -258.619)" fill="#d2deff"/>
      <path id="Path_5772" data-name="Path 5772" d="M150.356,267.168h-1.138a2.522,2.522,0,0,1-2.519-2.519v-3.512a2.522,2.522,0,0,1,2.519-2.519h1.138a2.522,2.522,0,0,1,2.519,2.519v3.512A2.521,2.521,0,0,1,150.356,267.168Zm-1.138-6.416a.385.385,0,0,0-.385.385v3.512a.385.385,0,0,0,.385.385h1.138a.385.385,0,0,0,.385-.385v-3.512a.385.385,0,0,0-.385-.385Z" transform="translate(-132.114 -258.618)" fill="#d2deff"/>
      <path id="Path_5773" data-name="Path 5773" d="M185.97,263.514h-2.993a1.067,1.067,0,0,1-1.067-1.067v-2.761a1.067,1.067,0,1,1,2.134,0v1.694h1.926a1.067,1.067,0,1,1,0,2.134Z" transform="translate(-159.81 -258.619)" fill="#d2deff"/>
      <path id="Path_5774" data-name="Path 5774" d="M198.6,267.037a1.067,1.067,0,0,1-1.067-1.067v-6.284a1.067,1.067,0,1,1,2.134,0v6.284A1.067,1.067,0,0,1,198.6,267.037Z" transform="translate(-172.099 -258.619)" fill="#d2deff"/>
      <path id="Path_5775" data-name="Path 5775" d="M245.315,263.514h-2.993a1.067,1.067,0,0,1-1.067-1.067v-2.761a1.067,1.067,0,0,1,2.134,0v1.694h1.926a1.067,1.067,0,1,1,0,2.134Z" transform="translate(-206.49 -258.619)" fill="#d2deff"/>
      <path id="Path_5776" data-name="Path 5776" d="M257.945,267.037a1.067,1.067,0,0,1-1.067-1.067v-6.284a1.067,1.067,0,1,1,2.134,0v6.284A1.067,1.067,0,0,1,257.945,267.037Z" transform="translate(-218.779 -258.619)" fill="#d2deff"/>
      <path id="Path_5777" data-name="Path 5777" d="M278.423,263.514H275.43a1.067,1.067,0,0,1-1.067-1.067v-2.761a1.067,1.067,0,0,1,2.134,0v1.694h1.926a1.067,1.067,0,1,1,0,2.134Z" transform="translate(-232.533 -258.619)" fill="#d2deff"/>
      <path id="Path_5778" data-name="Path 5778" d="M291.051,267.037a1.067,1.067,0,0,1-1.067-1.067v-6.284a1.067,1.067,0,1,1,2.134,0v6.284A1.067,1.067,0,0,1,291.051,267.037Z" transform="translate(-244.82 -258.619)" fill="#d2deff"/>
      <path id="Path_5779" data-name="Path 5779" d="M311.529,263.514h-2.993a1.067,1.067,0,0,1-1.067-1.067v-2.761a1.067,1.067,0,0,1,2.134,0v1.694h1.926a1.067,1.067,0,0,1,0,2.134Z" transform="translate(-258.573 -258.619)" fill="#d2deff"/>
      <path id="Path_5780" data-name="Path 5780" d="M324.159,267.037a1.067,1.067,0,0,1-1.067-1.067v-6.284a1.067,1.067,0,1,1,2.134,0v6.284A1.067,1.067,0,0,1,324.159,267.037Z" transform="translate(-270.862 -258.619)" fill="#d2deff"/>
      <path id="Path_5781" data-name="Path 5781" d="M344.637,263.514h-2.993a1.067,1.067,0,0,1-1.067-1.067v-2.761a1.067,1.067,0,0,1,2.134,0v1.694h1.926a1.067,1.067,0,1,1,0,2.134Z" transform="translate(-284.616 -258.619)" fill="#d2deff"/>
      <path id="Path_5782" data-name="Path 5782" d="M357.266,267.037a1.067,1.067,0,0,1-1.067-1.067v-6.284a1.067,1.067,0,1,1,2.134,0v6.284A1.067,1.067,0,0,1,357.266,267.037Z" transform="translate(-296.904 -258.619)" fill="#d2deff"/>
    </g>
    <path id="Path_5783" data-name="Path 5783" d="M211.329,46.511h-.694v-.694a1.067,1.067,0,1,0-2.134,0v.694h-.694a1.067,1.067,0,1,0,0,2.134h.694v.694a1.067,1.067,0,1,0,2.134,0v-.694h.694a1.067,1.067,0,0,0,0-2.134Z" transform="translate(-128.418 -35.2)" fill="#01eca5"/>
    <path id="Path_5784" data-name="Path 5784" d="M438.127,442.511h-.694v-.694a1.067,1.067,0,1,0-2.134,0v.694h-.694a1.067,1.067,0,0,0,0,2.134h.694v.694a1.067,1.067,0,0,0,2.134,0v-.694h.694a1.067,1.067,0,0,0,0-2.134Z" transform="translate(-306.815 -346.688)" fill="#01eca5"/>
    <path id="Path_5785" data-name="Path 5785" d="M195.957,432.251h-.694v-.694a1.067,1.067,0,0,0-2.134,0v.694h-.694a1.067,1.067,0,1,0,0,2.134h.694v.694a1.067,1.067,0,1,0,2.134,0v-.694h.694a1.067,1.067,0,0,0,0-2.134Z" transform="translate(-116.327 -338.618)" fill="#df6951"/>
    <path id="Path_5786" data-name="Path 5786" d="M236.48,454.846a3.117,3.117,0,1,1,2.978-2.191A3.107,3.107,0,0,1,236.48,454.846Zm0-4.1a.987.987,0,1,0,.293.045.978.978,0,0,0-.293-.045Z" transform="translate(-149.36 -352.872)" fill="#df6951"/>
    <path id="Path_5787" data-name="Path 5787" d="M435.3,74.713a3.117,3.117,0,1,1,2.978-2.191,3.106,3.106,0,0,1-2.978,2.191Zm0-4.1a.982.982,0,1,0,.291.044A.984.984,0,0,0,435.3,70.614Zm1.956,1.591h0Z" transform="translate(-305.75 -53.865)" fill="#8399fe"/>
  </g>
</svg>
