<svg xmlns="http://www.w3.org/2000/svg" width="153.812" height="152.933" viewBox="0 0 153.812 152.933">
  <g id="icon" transform="translate(-10.333 -11.633)">
    <path id="Path_5855" data-name="Path 5855" d="M5.371,29.474C9.741,16.848,17.965-5.056,35.5,1.054c6.827,2.379,8.971,11.413,15.834,12.539C57.818,14.657,63.3,8.286,69.472,7.079c7.661-1.5,15.768.507,18.679,7.982C91.632,24,81.368,34.038,83.85,42.2c4.093,13.47,19.224-8.855,21.93,12.883,3.786,30.418-29.931,84.569-52.646,40.039C41.615,72.547,29.544,88.382,11.589,77.15-5.46,66.484-.183,45.519,5.371,29.474Z" transform="translate(97.392 11.633) rotate(51)" fill="#c8e6ff"/>
    <g id="folder" transform="translate(47.387 48.488)">
      <g id="Group_10102" data-name="Group 10102" transform="translate(5.052 1.222)">
        <path id="Path_5815" data-name="Path 5815" d="M96.182,80.969H32.63A1.629,1.629,0,0,1,31,79.339V34.13a1.63,1.63,0,0,1,1.63-1.63H96.182a1.63,1.63,0,0,1,1.63,1.63v45.21A1.63,1.63,0,0,1,96.182,80.969Z" transform="translate(-31 -32.5)" fill="#dce1eb"/>
      </g>
      <g id="Group_10103" data-name="Group 10103" transform="translate(11.57 7.74)">
        <path id="Path_5816" data-name="Path 5816" d="M136.182,120.144H72.63a1.63,1.63,0,0,1-1.63-1.63V74.13a1.63,1.63,0,0,1,1.63-1.63h63.552a1.63,1.63,0,0,1,1.63,1.63v44.385A1.63,1.63,0,0,1,136.182,120.144Z" transform="translate(-71 -72.5)" fill="#f2f6fc"/>
      </g>
      <g id="Group_10104" data-name="Group 10104" transform="translate(11.57 7.74)">
        <path id="Path_5817" data-name="Path 5817" d="M77.681,118.514V74.13a1.63,1.63,0,0,1,1.63-1.63H72.63A1.63,1.63,0,0,0,71,74.13v44.385a1.63,1.63,0,0,0,1.63,1.63h6.681A1.63,1.63,0,0,1,77.681,118.514Z" transform="translate(-71 -72.5)" fill="#e9edf5"/>
      </g>
      <g id="Group_10105" data-name="Group 10105" transform="translate(1.222 16.469)">
        <path id="Path_5818" data-name="Path 5818" d="M38.528,132.41l-1.111-3.968a3.259,3.259,0,0,0-3.138-2.38H10.759A3.259,3.259,0,0,0,7.5,129.321V180.4a3.259,3.259,0,0,0,3.259,3.259h74.47a3.259,3.259,0,0,0,3.259-3.259V138.049a3.259,3.259,0,0,0-3.259-3.259H41.667a3.259,3.259,0,0,1-3.139-2.38Z" transform="translate(-7.5 -126.062)" fill="#00a072"/>
      </g>
      <g id="Group_10108" data-name="Group 10108" transform="translate(1.222 16.469)">
        <path id="Path_5823" data-name="Path 5823" d="M14.018,180.4V129.322a3.259,3.259,0,0,1,3.259-3.259H10.759A3.259,3.259,0,0,0,7.5,129.322V180.4a3.259,3.259,0,0,0,3.259,3.259h6.518A3.259,3.259,0,0,1,14.018,180.4Z" transform="translate(-7.5 -126.063)" fill="#005039"/>
      </g>
      <g id="Group_10110" data-name="Group 10110" transform="translate(0 0)">
        <g id="Group_10109" data-name="Group 10109">
          <path id="Path_5824" data-name="Path 5824" d="M79.6,49.023V34.37a2.855,2.855,0,0,0-2.852-2.852H73.085V27.852A2.855,2.855,0,0,0,70.233,25H6.681a2.855,2.855,0,0,0-2.852,2.852V40.294A4.488,4.488,0,0,0,0,44.728V95.8a4.486,4.486,0,0,0,4.481,4.481H29.057a1.222,1.222,0,0,0,0-2.444H4.481A2.039,2.039,0,0,1,2.444,95.8V44.728a2.039,2.039,0,0,1,2.037-2.037H28a2.044,2.044,0,0,1,1.961,1.488l1.111,3.968a4.5,4.5,0,0,0,4.315,3.273H78.951a2.039,2.039,0,0,1,2.037,2.037V95.8a2.039,2.039,0,0,1-2.037,2.037H33.619a1.222,1.222,0,1,0,0,2.444H78.951A4.486,4.486,0,0,0,83.433,95.8V53.456A4.488,4.488,0,0,0,79.6,49.023ZM33.427,47.487l-1.111-3.968A4.5,4.5,0,0,0,28,40.246H12.792V34.37a.408.408,0,0,1,.407-.407H49.748a1.222,1.222,0,1,0,0-2.444H13.2a2.855,2.855,0,0,0-2.852,2.852v5.877H6.274V27.852a.408.408,0,0,1,.407-.407H70.233a.408.408,0,0,1,.407.407v3.666H54.311a1.222,1.222,0,1,0,0,2.444h22.44a.408.408,0,0,1,.407.407v14.6H35.389a2.044,2.044,0,0,1-1.961-1.488Z" transform="translate(0 -25)" fill="#044982"/>
        </g>
      </g>
    </g>
    <g id="Group_10111" data-name="Group 10111" transform="translate(73.858 85.295)">
      <path id="Path_5825" data-name="Path 5825" d="M291,293.146H288.35a.933.933,0,0,1,0-1.865H291a.933.933,0,0,1,0,1.865Z" transform="translate(-250.336 -269.032)" fill="#97ffd2"/>
      <path id="Path_5826" data-name="Path 5826" d="M291,293.146H288.35a.933.933,0,0,1,0-1.865H291a.933.933,0,0,1,0,1.865Z" transform="translate(-250.336 -263.47)" fill="#97ffd2"/>
      <path id="Path_5827" data-name="Path 5827" d="M291,293.146H288.35a.933.933,0,0,1,0-1.865H291a.933.933,0,0,1,0,1.865Z" transform="translate(-250.336 -291.281)" fill="#97ffd2"/>
      <path id="Path_5828" data-name="Path 5828" d="M291,293.146H288.35a.933.933,0,0,1,0-1.865H291a.933.933,0,0,1,0,1.865Z" transform="translate(-250.336 -275.522)" fill="#97ffd2"/>
      <path id="Path_5829" data-name="Path 5829" d="M291,293.146H288.35a.933.933,0,0,1,0-1.865H291a.933.933,0,0,1,0,1.865Z" transform="translate(-250.336 -281.084)" fill="#97ffd2"/>
      <path id="Path_5830" data-name="Path 5830" d="M291,293.146H288.35a.933.933,0,0,1,0-1.865H291a.933.933,0,0,1,0,1.865Z" transform="translate(-250.336 -285.719)" fill="#97ffd2"/>
      <path id="Path_5831" data-name="Path 5831" d="M291,293.146H288.35a.933.933,0,0,1,0-1.865H291a.933.933,0,0,1,0,1.865Z" transform="translate(-259.606 -269.032)" fill="#97ffd2"/>
      <path id="Path_5832" data-name="Path 5832" d="M291,293.146H288.35a.933.933,0,0,1,0-1.865H291a.933.933,0,0,1,0,1.865Z" transform="translate(-259.606 -263.47)" fill="#97ffd2"/>
      <path id="Path_5833" data-name="Path 5833" d="M291,293.146H288.35a.933.933,0,0,1,0-1.865H291a.933.933,0,0,1,0,1.865Z" transform="translate(-259.606 -291.281)" fill="#97ffd2"/>
      <path id="Path_5834" data-name="Path 5834" d="M291,293.146H288.35a.933.933,0,0,1,0-1.865H291a.933.933,0,0,1,0,1.865Z" transform="translate(-259.606 -275.522)" fill="#97ffd2"/>
      <path id="Path_5835" data-name="Path 5835" d="M291,293.146H288.35a.933.933,0,0,1,0-1.865H291a.933.933,0,0,1,0,1.865Z" transform="translate(-259.606 -281.084)" fill="#97ffd2"/>
      <path id="Path_5836" data-name="Path 5836" d="M291,293.146H288.35a.933.933,0,0,1,0-1.865H291a.933.933,0,0,1,0,1.865Z" transform="translate(-259.606 -285.719)" fill="#97ffd2"/>
      <path id="Path_5837" data-name="Path 5837" d="M291,293.146H288.35a.933.933,0,0,1,0-1.865H291a.933.933,0,0,1,0,1.865Z" transform="translate(-268.876 -269.032)" fill="#97ffd2"/>
      <path id="Path_5838" data-name="Path 5838" d="M291,293.146H288.35a.933.933,0,0,1,0-1.865H291a.933.933,0,0,1,0,1.865Z" transform="translate(-268.876 -263.47)" fill="#97ffd2"/>
      <path id="Path_5839" data-name="Path 5839" d="M291,293.146H288.35a.933.933,0,0,1,0-1.865H291a.933.933,0,0,1,0,1.865Z" transform="translate(-268.876 -291.281)" fill="#97ffd2"/>
      <path id="Path_5840" data-name="Path 5840" d="M291,293.146H288.35a.933.933,0,0,1,0-1.865H291a.933.933,0,0,1,0,1.865Z" transform="translate(-268.876 -275.522)" fill="#97ffd2"/>
      <path id="Path_5841" data-name="Path 5841" d="M291,293.146H288.35a.933.933,0,0,1,0-1.865H291a.933.933,0,0,1,0,1.865Z" transform="translate(-268.876 -281.084)" fill="#97ffd2"/>
      <path id="Path_5842" data-name="Path 5842" d="M291,293.146H288.35a.933.933,0,0,1,0-1.865H291a.933.933,0,0,1,0,1.865Z" transform="translate(-268.876 -285.719)" fill="#97ffd2"/>
      <path id="Path_5843" data-name="Path 5843" d="M291,293.146H288.35a.933.933,0,0,1,0-1.865H291a.933.933,0,0,1,0,1.865Z" transform="translate(-278.147 -269.032)" fill="#97ffd2"/>
      <path id="Path_5844" data-name="Path 5844" d="M291,293.146H288.35a.933.933,0,0,1,0-1.865H291a.933.933,0,0,1,0,1.865Z" transform="translate(-278.147 -263.47)" fill="#97ffd2"/>
      <path id="Path_5845" data-name="Path 5845" d="M291,293.146H288.35a.933.933,0,0,1,0-1.865H291a.933.933,0,0,1,0,1.865Z" transform="translate(-278.147 -291.281)" fill="#97ffd2"/>
      <path id="Path_5846" data-name="Path 5846" d="M291,293.146H288.35a.933.933,0,0,1,0-1.865H291a.933.933,0,0,1,0,1.865Z" transform="translate(-278.147 -275.522)" fill="#97ffd2"/>
      <path id="Path_5847" data-name="Path 5847" d="M291,293.146H288.35a.933.933,0,0,1,0-1.865H291a.933.933,0,0,1,0,1.865Z" transform="translate(-278.147 -281.084)" fill="#97ffd2"/>
      <path id="Path_5848" data-name="Path 5848" d="M291,293.146H288.35a.933.933,0,0,1,0-1.865H291a.933.933,0,0,1,0,1.865Z" transform="translate(-278.147 -285.719)" fill="#97ffd2"/>
      <path id="Path_5849" data-name="Path 5849" d="M291,293.146H288.35a.933.933,0,0,1,0-1.865H291a.933.933,0,0,1,0,1.865Z" transform="translate(-287.417 -269.032)" fill="#97ffd2"/>
      <path id="Path_5850" data-name="Path 5850" d="M291,293.146H288.35a.933.933,0,0,1,0-1.865H291a.933.933,0,0,1,0,1.865Z" transform="translate(-287.417 -263.47)" fill="#97ffd2"/>
      <path id="Path_5851" data-name="Path 5851" d="M291,293.146H288.35a.933.933,0,0,1,0-1.865H291a.933.933,0,0,1,0,1.865Z" transform="translate(-287.417 -291.281)" fill="#97ffd2"/>
      <path id="Path_5852" data-name="Path 5852" d="M291,293.146H288.35a.933.933,0,0,1,0-1.865H291a.933.933,0,0,1,0,1.865Z" transform="translate(-287.417 -275.522)" fill="#97ffd2"/>
      <path id="Path_5853" data-name="Path 5853" d="M291,293.146H288.35a.933.933,0,0,1,0-1.865H291a.933.933,0,0,1,0,1.865Z" transform="translate(-287.417 -281.084)" fill="#97ffd2"/>
      <path id="Path_5854" data-name="Path 5854" d="M291,293.146H288.35a.933.933,0,0,1,0-1.865H291a.933.933,0,0,1,0,1.865Z" transform="translate(-287.417 -285.719)" fill="#97ffd2"/>
    </g>
  </g>
</svg>
