<svg xmlns="http://www.w3.org/2000/svg" xmlns:xlink="http://www.w3.org/1999/xlink" width="123.447" height="114.767" viewBox="0 0 123.447 114.767">
  <defs>
    <linearGradient id="linear-gradient" x1="-0.049" y1="0.337" x2="1.034" y2="0.735" gradientUnits="objectBoundingBox">
      <stop offset="0" stop-color="#d2deff" stop-opacity="0"/>
      <stop offset="0.049" stop-color="#f2f2f2"/>
      <stop offset="0.999" stop-color="#d2deff"/>
      <stop offset="1" stop-color="#d2deff"/>
    </linearGradient>
  </defs>
  <g id="icon" transform="translate(0 0)">
    <path id="Path_5693" data-name="Path 5693" d="M92.249,98.373H92.11a26.711,26.711,0,0,1-20.118-9.159A40.95,40.95,0,0,0,40.86,75.135a41.046,41.046,0,0,0,.186,82.092,40.868,40.868,0,0,0,17.733-4.02A13.689,13.689,0,0,1,73,154.692a31.387,31.387,0,1,0,19.252-56.32Z" transform="translate(0 -61.359)" fill="url(#linear-gradient)"/>
    <g id="Group_10098" data-name="Group 10098" transform="translate(4.679 0)">
      <path id="Path_5694" data-name="Path 5694" d="M261.052,195.991l-7.267-2.069a28.958,28.958,0,0,0-3.365-8.119l3.677-6.6a1.442,1.442,0,0,0-.24-1.718l-4.967-4.967a1.442,1.442,0,0,0-1.718-.24l-6.6,3.677a28.958,28.958,0,0,0-8.119-3.365l-2.069-7.267a1.44,1.44,0,0,0-1.386-1.046h-7.023a1.44,1.44,0,0,0-1.386,1.046l-2.069,7.267a28.957,28.957,0,0,0-8.119,3.365l-6.6-3.677a1.442,1.442,0,0,0-1.718.24l-4.967,4.967a1.442,1.442,0,0,0-.24,1.718l3.677,6.6a28.957,28.957,0,0,0-3.365,8.119l-7.267,2.069a1.44,1.44,0,0,0-1.046,1.386V204.4a1.44,1.44,0,0,0,1.046,1.386l7.267,2.069a28.958,28.958,0,0,0,3.365,8.119l-3.677,6.6a1.442,1.442,0,0,0,.24,1.718l4.967,4.967a1.442,1.442,0,0,0,1.718.24l6.6-3.677a28.954,28.954,0,0,0,8.119,3.365l2.069,7.267a1.44,1.44,0,0,0,1.386,1.046h7.023a1.44,1.44,0,0,0,1.386-1.046l2.069-7.267a28.956,28.956,0,0,0,8.119-3.365l6.6,3.677a1.442,1.442,0,0,0,1.718-.24l4.967-4.967a1.442,1.442,0,0,0,.24-1.718l-3.677-6.6a28.958,28.958,0,0,0,3.365-8.119l7.267-2.069A1.44,1.44,0,0,0,262.1,204.4v-7.023a1.44,1.44,0,0,0-1.046-1.386Zm-35.57,22.921a18.024,18.024,0,1,1,18.024-18.024,18.025,18.025,0,0,1-18.024,18.024Z" transform="translate(-148.009 -129.006)" fill="#2626bc" opacity="0.1"/>
      <path id="Path_5695" data-name="Path 5695" d="M58.384,195.852l-3.924-1.117a15.637,15.637,0,0,0-1.817-4.384l1.985-3.566a.779.779,0,0,0-.13-.928l-2.682-2.682a.778.778,0,0,0-.928-.13l-3.566,1.985a15.637,15.637,0,0,0-4.384-1.817l-1.117-3.924a.777.777,0,0,0-.748-.565H37.281a.778.778,0,0,0-.748.565l-1.117,3.924a15.637,15.637,0,0,0-4.384,1.817l-3.566-1.985a.779.779,0,0,0-.928.13l-2.682,2.682a.779.779,0,0,0-.13.928l1.985,3.566a15.637,15.637,0,0,0-1.817,4.384l-3.924,1.117a.777.777,0,0,0-.565.748v3.792a.778.778,0,0,0,.565.748l3.924,1.117a15.637,15.637,0,0,0,1.817,4.384l-1.985,3.566a.779.779,0,0,0,.13.928l2.682,2.682a.779.779,0,0,0,.928.13l3.566-1.985a15.638,15.638,0,0,0,4.384,1.817l1.117,3.924a.777.777,0,0,0,.748.565h3.792a.778.778,0,0,0,.748-.565l1.117-3.924a15.637,15.637,0,0,0,4.384-1.817l3.566,1.985a.779.779,0,0,0,.928-.13l2.682-2.682a.779.779,0,0,0,.13-.928l-1.985-3.566a15.634,15.634,0,0,0,1.817-4.384l3.924-1.117a.777.777,0,0,0,.565-.748V196.6a.778.778,0,0,0-.565-.748Zm-19.207,8.863A6.219,6.219,0,1,1,45.4,198.5,6.219,6.219,0,0,1,39.178,204.715Z" transform="translate(-19.406 -139.973)" fill="#2626bc" opacity="0.1"/>
      <path id="Path_5696" data-name="Path 5696" d="M158.379,36.444l-4.226-1.2A16.839,16.839,0,0,0,152.2,30.52l2.138-3.84a.839.839,0,0,0-.14-1l-2.888-2.888a.839.839,0,0,0-1-.14l-3.84,2.138a16.838,16.838,0,0,0-4.721-1.957l-1.2-4.226a.837.837,0,0,0-.806-.608h-4.084a.837.837,0,0,0-.806.608l-1.2,4.226a16.839,16.839,0,0,0-4.721,1.957l-3.84-2.138a.839.839,0,0,0-1,.14L121.2,25.68a.839.839,0,0,0-.14,1l2.138,3.84a16.838,16.838,0,0,0-1.957,4.721l-4.226,1.2a.837.837,0,0,0-.608.806v4.084a.837.837,0,0,0,.608.806l4.226,1.2a16.838,16.838,0,0,0,1.957,4.721l-2.138,3.84a.838.838,0,0,0,.14,1l2.888,2.888a.839.839,0,0,0,1,.14l3.84-2.138a16.831,16.831,0,0,0,4.721,1.957l1.2,4.226a.837.837,0,0,0,.806.608h4.084a.837.837,0,0,0,.806-.608l1.2-4.226a16.838,16.838,0,0,0,4.721-1.957l3.84,2.138a.838.838,0,0,0,1-.14L154.2,52.9a.839.839,0,0,0,.14-1l-2.138-3.84a16.839,16.839,0,0,0,1.957-4.721l4.226-1.2a.837.837,0,0,0,.608-.806V37.25a.838.838,0,0,0-.608-.806ZM137.7,47.574a8.282,8.282,0,1,1,8.282-8.282A8.283,8.283,0,0,1,137.7,47.574Z" transform="translate(-93.017 -18)" fill="#2626bc" opacity="0.1"/>
    </g>
    <path id="Path_5697" data-name="Path 5697" d="M261.052,216.992l-7.267-2.069a28.957,28.957,0,0,0-3.365-8.119l3.677-6.6a1.442,1.442,0,0,0-.24-1.718l-4.967-4.967a1.442,1.442,0,0,0-1.718-.24l-6.6,3.677a28.957,28.957,0,0,0-8.119-3.365l-2.069-7.267a1.44,1.44,0,0,0-1.386-1.046h-7.023a1.44,1.44,0,0,0-1.386,1.046l-2.069,7.267a28.957,28.957,0,0,0-8.119,3.365l-6.6-3.677a1.442,1.442,0,0,0-1.718.24l-4.967,4.967a1.442,1.442,0,0,0-.24,1.718l3.677,6.6a28.954,28.954,0,0,0-3.365,8.119l-7.267,2.069a1.44,1.44,0,0,0-1.046,1.386V225.4a1.44,1.44,0,0,0,1.046,1.386l7.267,2.069a28.957,28.957,0,0,0,3.365,8.119l-3.677,6.6a1.442,1.442,0,0,0,.24,1.718l4.967,4.967a1.442,1.442,0,0,0,1.718.24l6.6-3.677a28.953,28.953,0,0,0,8.119,3.365l2.069,7.267a1.44,1.44,0,0,0,1.386,1.046h7.023a1.44,1.44,0,0,0,1.386-1.046l2.069-7.267a28.955,28.955,0,0,0,8.119-3.365l6.6,3.677a1.442,1.442,0,0,0,1.718-.24l4.967-4.967a1.442,1.442,0,0,0,.24-1.718l-3.677-6.6a28.958,28.958,0,0,0,3.365-8.119l7.267-2.069A1.44,1.44,0,0,0,262.1,225.4v-7.023A1.439,1.439,0,0,0,261.052,216.992Zm-35.57,22.921a18.024,18.024,0,1,1,18.024-18.024A18.025,18.025,0,0,1,225.482,239.913Z" transform="translate(-143.33 -144.943)" fill="#00a072"/>
    <path id="Path_5698" data-name="Path 5698" d="M58.384,216.852l-3.924-1.117a15.638,15.638,0,0,0-1.817-4.384l1.985-3.566a.779.779,0,0,0-.13-.928l-2.682-2.682a.778.778,0,0,0-.928-.13l-3.566,1.985a15.636,15.636,0,0,0-4.384-1.817l-1.117-3.924a.777.777,0,0,0-.748-.565H37.281a.778.778,0,0,0-.748.565l-1.117,3.924a15.636,15.636,0,0,0-4.384,1.817l-3.566-1.985a.779.779,0,0,0-.928.13l-2.682,2.682a.779.779,0,0,0-.13.928l1.985,3.566a15.638,15.638,0,0,0-1.817,4.384l-3.924,1.117a.777.777,0,0,0-.565.748v3.792a.778.778,0,0,0,.565.748l3.924,1.117a15.638,15.638,0,0,0,1.817,4.384l-1.985,3.566a.779.779,0,0,0,.13.928l2.682,2.682a.779.779,0,0,0,.928.13l3.566-1.985a15.638,15.638,0,0,0,4.384,1.817l1.117,3.924a.777.777,0,0,0,.748.565h3.792a.778.778,0,0,0,.748-.565l1.117-3.924a15.638,15.638,0,0,0,4.384-1.817l3.566,1.985a.779.779,0,0,0,.928-.13l2.682-2.682a.779.779,0,0,0,.13-.928l-1.985-3.566a15.635,15.635,0,0,0,1.817-4.384l3.924-1.117a.777.777,0,0,0,.565-.748V217.6a.777.777,0,0,0-.565-.748Zm-19.207,8.863A6.219,6.219,0,1,1,45.4,219.5,6.219,6.219,0,0,1,39.178,225.715Z" transform="translate(-14.727 -155.91)" fill="#6ba2cf"/>
    <path id="Path_5699" data-name="Path 5699" d="M158.379,57.444l-4.226-1.2A16.839,16.839,0,0,0,152.2,51.52l2.138-3.84a.838.838,0,0,0-.14-1l-2.888-2.888a.839.839,0,0,0-1-.14l-3.84,2.138a16.838,16.838,0,0,0-4.721-1.957l-1.2-4.226a.837.837,0,0,0-.806-.608h-4.084a.837.837,0,0,0-.806.608l-1.2,4.226a16.839,16.839,0,0,0-4.721,1.957l-3.84-2.138a.839.839,0,0,0-1,.14L121.2,46.68a.839.839,0,0,0-.14,1l2.138,3.84a16.838,16.838,0,0,0-1.957,4.721l-4.226,1.2a.837.837,0,0,0-.608.806v4.084a.837.837,0,0,0,.608.806l4.226,1.2a16.838,16.838,0,0,0,1.957,4.721l-2.138,3.84a.838.838,0,0,0,.14,1l2.888,2.888a.839.839,0,0,0,1,.14l3.84-2.138a16.831,16.831,0,0,0,4.721,1.957l1.2,4.226a.837.837,0,0,0,.806.608h4.084a.837.837,0,0,0,.806-.608l1.2-4.226a16.838,16.838,0,0,0,4.721-1.957l3.84,2.138a.838.838,0,0,0,1-.14L154.2,73.9a.839.839,0,0,0,.14-1l-2.138-3.84a16.839,16.839,0,0,0,1.957-4.721l4.226-1.2a.837.837,0,0,0,.608-.806V58.25a.838.838,0,0,0-.608-.806ZM137.7,68.574a8.282,8.282,0,1,1,8.282-8.282A8.283,8.283,0,0,1,137.7,68.574Z" transform="translate(-88.338 -33.937)" fill="#97ffd2"/>
    <g id="Group_10099" data-name="Group 10099" transform="translate(3.473 3.858)">
      <path id="Path_5700" data-name="Path 5700" d="M225.2,255.915h-7.022a2.657,2.657,0,0,1-2.545-1.921l-1.88-6.6a30.123,30.123,0,0,1-7.167-2.97l-6,3.34a2.658,2.658,0,0,1-3.157-.441l-4.967-4.967a2.658,2.658,0,0,1-.442-3.156l3.341-6a30.112,30.112,0,0,1-2.97-7.167l-6.6-1.88a2.657,2.657,0,0,1-1.921-2.545v-7.023a2.657,2.657,0,0,1,1.921-2.545l6.6-1.88a30.123,30.123,0,0,1,2.97-7.167l-3.34-6a2.659,2.659,0,0,1,.441-3.157l4.967-4.967a2.658,2.658,0,0,1,3.156-.442l6,3.341a30.122,30.122,0,0,1,7.167-2.97l1.88-6.6a2.657,2.657,0,0,1,2.545-1.921H225.2a2.657,2.657,0,0,1,2.545,1.921l1.88,6.6a30.125,30.125,0,0,1,7.167,2.97l6-3.34a2.658,2.658,0,0,1,3.157.441l4.967,4.967a2.658,2.658,0,0,1,.442,3.156l-3.341,6a30.116,30.116,0,0,1,2.97,7.167l6.6,1.88h0a2.658,2.658,0,0,1,1.921,2.545v7.023a2.657,2.657,0,0,1-1.921,2.545l-6.6,1.88a30.134,30.134,0,0,1-2.97,7.167l3.34,6a2.658,2.658,0,0,1-.441,3.157l-4.967,4.967a2.658,2.658,0,0,1-3.156.442l-6-3.341a30.123,30.123,0,0,1-7.167,2.97l-1.88,6.6a2.658,2.658,0,0,1-2.545,1.921Zm-18.6-14.089a1.2,1.2,0,0,1,.625.175,27.719,27.719,0,0,0,7.781,3.225,1.205,1.205,0,0,1,.872.841l2.069,7.267a.233.233,0,0,0,.226.17H225.2a.234.234,0,0,0,.226-.171l2.069-7.267a1.206,1.206,0,0,1,.872-.841A27.716,27.716,0,0,0,236.149,242a1.206,1.206,0,0,1,1.212-.022l6.6,3.677a.235.235,0,0,0,.279-.04l4.967-4.967a.236.236,0,0,0,.039-.28l-3.676-6.6a1.206,1.206,0,0,1,.022-1.212,27.723,27.723,0,0,0,3.225-7.781,1.205,1.205,0,0,1,.841-.872l7.267-2.069a.233.233,0,0,0,.17-.226v-7.023a.234.234,0,0,0-.171-.226l-7.266-2.069a1.206,1.206,0,0,1-.841-.872,27.729,27.729,0,0,0-3.225-7.781,1.205,1.205,0,0,1-.023-1.212l3.677-6.6a.235.235,0,0,0-.04-.279l-4.967-4.967a.236.236,0,0,0-.28-.039l-6.6,3.676a1.205,1.205,0,0,1-1.212-.023,27.73,27.73,0,0,0-7.781-3.225,1.205,1.205,0,0,1-.872-.841l-2.069-7.267a.234.234,0,0,0-.226-.17h-7.023a.233.233,0,0,0-.226.171l-2.069,7.266a1.206,1.206,0,0,1-.872.841,27.716,27.716,0,0,0-7.781,3.225,1.205,1.205,0,0,1-1.212.023l-6.6-3.677a.235.235,0,0,0-.279.04l-4.967,4.967a.236.236,0,0,0-.039.281l3.676,6.6a1.206,1.206,0,0,1-.022,1.212,27.717,27.717,0,0,0-3.225,7.781,1.206,1.206,0,0,1-.841.872l-7.267,2.069a.234.234,0,0,0-.17.226v7.022a.233.233,0,0,0,.171.226l7.267,2.069a1.206,1.206,0,0,1,.841.872,27.721,27.721,0,0,0,3.225,7.781,1.206,1.206,0,0,1,.022,1.212l-3.677,6.6a.235.235,0,0,0,.04.279l4.967,4.967a.235.235,0,0,0,.28.039l6.6-3.676A1.2,1.2,0,0,1,206.6,241.826Zm15.085-4.5a19.228,19.228,0,0,1-16.031-29.847,1.206,1.206,0,1,1,2.009,1.333,16.842,16.842,0,1,0,4.31-4.442,1.206,1.206,0,1,1-1.395-1.967,19.228,19.228,0,1,1,11.107,34.922Z" transform="translate(-143.009 -145.006)" fill="#2626bc"/>
      <path id="Path_5701" data-name="Path 5701" d="M37.278,236.676H33.486a1.992,1.992,0,0,1-1.908-1.44l-.93-3.267a16.835,16.835,0,0,1-3.423-1.418L24.257,232.2a1.993,1.993,0,0,1-2.367-.331l-2.682-2.682a1.992,1.992,0,0,1-.331-2.366l1.653-2.97a16.816,16.816,0,0,1-1.418-3.423l-3.267-.93a1.992,1.992,0,0,1-1.44-1.908V213.8a1.992,1.992,0,0,1,1.44-1.908l3.267-.93a16.817,16.817,0,0,1,1.418-3.423l-1.653-2.969a1.992,1.992,0,0,1,.331-2.367l2.682-2.682a1.993,1.993,0,0,1,2.366-.331l2.97,1.653a16.815,16.815,0,0,1,3.423-1.418l.93-3.267a1.992,1.992,0,0,1,1.908-1.44h3.792a1.992,1.992,0,0,1,1.908,1.44l.93,3.266a16.829,16.829,0,0,1,3.423,1.418l2.969-1.653a1.993,1.993,0,0,1,2.366.33l2.682,2.682a1.992,1.992,0,0,1,.332,2.365l-1.654,2.97a16.814,16.814,0,0,1,1.418,3.423l3.267.93a1.992,1.992,0,0,1,1.44,1.908v3.792a1.992,1.992,0,0,1-1.44,1.908l-3.267.93a16.834,16.834,0,0,1-1.418,3.423l1.653,2.969a1.992,1.992,0,0,1-.331,2.367l-2.682,2.682a1.992,1.992,0,0,1-2.365.332l-2.97-1.654a16.828,16.828,0,0,1-3.423,1.418l-.93,3.267a1.992,1.992,0,0,1-1.908,1.441Zm-3.469-2.411h3.147l1.029-3.613a1.206,1.206,0,0,1,.872-.841,14.419,14.419,0,0,0,4.046-1.677,1.206,1.206,0,0,1,1.212-.022l3.283,1.828,2.225-2.225L47.8,224.431a1.206,1.206,0,0,1,.022-1.212,14.42,14.42,0,0,0,1.677-4.046,1.205,1.205,0,0,1,.841-.872l3.613-1.029v-3.147L50.335,213.1a1.206,1.206,0,0,1-.841-.872,14.417,14.417,0,0,0-1.677-4.046,1.206,1.206,0,0,1-.022-1.212l1.828-3.283L47.4,201.458l-3.283,1.828a1.206,1.206,0,0,1-1.212-.022,14.413,14.413,0,0,0-4.046-1.677,1.205,1.205,0,0,1-.872-.841l-1.029-3.613H33.809l-1.029,3.613a1.206,1.206,0,0,1-.872.841,14.413,14.413,0,0,0-4.046,1.677,1.206,1.206,0,0,1-1.212.022l-3.283-1.828-2.225,2.225,1.828,3.283a1.206,1.206,0,0,1-.023,1.212,14.422,14.422,0,0,0-1.677,4.046,1.205,1.205,0,0,1-.841.872l-3.613,1.029v3.147l3.613,1.029a1.206,1.206,0,0,1,.841.872,14.414,14.414,0,0,0,1.677,4.046,1.206,1.206,0,0,1,.022,1.212l-1.828,3.283,2.225,2.225,3.283-1.828a1.206,1.206,0,0,1,1.212.022,14.419,14.419,0,0,0,4.046,1.677,1.205,1.205,0,0,1,.872.841Zm20.45-20.051h0Zm0,0h0Z" transform="translate(-14.405 -155.97)" fill="#2626bc"/>
      <path id="Path_5702" data-name="Path 5702" d="M78.04,265.784a7.424,7.424,0,1,1,7.424-7.424A7.433,7.433,0,0,1,78.04,265.784Zm0-12.438a5.013,5.013,0,1,0,5.013,5.013A5.019,5.019,0,0,0,78.04,253.346Z" transform="translate(-57.063 -198.631)" fill="#2626bc"/>
      <path id="Path_5703" data-name="Path 5703" d="M135.943,79h-4.084a2.051,2.051,0,0,1-1.965-1.484l-1.016-3.567a18.012,18.012,0,0,1-3.761-1.559l-3.242,1.8a2.053,2.053,0,0,1-2.438-.341l-2.888-2.888a2.052,2.052,0,0,1-.341-2.436l1.805-3.243a18.012,18.012,0,0,1-1.559-3.761l-3.567-1.016A2.052,2.052,0,0,1,111.4,58.54V54.456a2.051,2.051,0,0,1,1.484-1.965l3.567-1.016a18.012,18.012,0,0,1,1.559-3.761l-1.8-3.242a2.053,2.053,0,0,1,.341-2.438l2.888-2.888a2.052,2.052,0,0,1,2.436-.341l3.243,1.805a18.013,18.013,0,0,1,3.761-1.559l1.016-3.567A2.052,2.052,0,0,1,131.859,34h4.084a2.052,2.052,0,0,1,1.965,1.484l1.016,3.567a18.013,18.013,0,0,1,3.761,1.559l3.242-1.8a2.053,2.053,0,0,1,2.438.341l2.888,2.888a2.052,2.052,0,0,1,.341,2.436l-1.805,3.243a18.012,18.012,0,0,1,1.559,3.761l3.567,1.016a2.052,2.052,0,0,1,1.484,1.965V58.54a2.052,2.052,0,0,1-1.484,1.965l-3.567,1.016a18.011,18.011,0,0,1-1.559,3.761l1.8,3.242a2.053,2.053,0,0,1-.341,2.438l-2.888,2.888a2.052,2.052,0,0,1-2.436.341l-3.243-1.805a18.014,18.014,0,0,1-3.761,1.559l-1.016,3.567A2.052,2.052,0,0,1,135.943,79Zm-3.806-2.411h3.529l1.127-3.958a1.206,1.206,0,0,1,.872-.841,15.622,15.622,0,0,0,4.383-1.817,1.2,1.2,0,0,1,1.212-.023l3.6,2,2.495-2.495-2-3.6a1.206,1.206,0,0,1,.023-1.212,15.619,15.619,0,0,0,1.817-4.383,1.206,1.206,0,0,1,.841-.872l3.958-1.127V54.734l-3.958-1.127a1.205,1.205,0,0,1-.841-.872,15.622,15.622,0,0,0-1.817-4.383,1.206,1.206,0,0,1-.023-1.212l2-3.6-2.495-2.495-3.6,2a1.205,1.205,0,0,1-1.212-.023,15.619,15.619,0,0,0-4.383-1.816,1.206,1.206,0,0,1-.872-.841l-1.127-3.958h-3.529L131.01,40.37a1.206,1.206,0,0,1-.872.841,15.622,15.622,0,0,0-4.383,1.817,1.206,1.206,0,0,1-1.212.023l-3.6-2-2.495,2.495,2,3.6a1.206,1.206,0,0,1-.023,1.212,15.619,15.619,0,0,0-1.816,4.383,1.206,1.206,0,0,1-.841.872l-3.958,1.127v3.529l3.958,1.127a1.206,1.206,0,0,1,.841.872,15.622,15.622,0,0,0,1.816,4.383,1.206,1.206,0,0,1,.023,1.212l-2,3.6,2.495,2.495,3.6-2a1.205,1.205,0,0,1,1.212.023,15.618,15.618,0,0,0,4.383,1.817,1.206,1.206,0,0,1,.872.841Zm1.764-10.6a9.428,9.428,0,0,1-3.671-.738,1.206,1.206,0,1,1,.934-2.223,7.068,7.068,0,1,0-3.912-4.1,1.206,1.206,0,0,1-2.265.827,9.489,9.489,0,1,1,8.914,6.234Z" transform="translate(-88.017 -34.001)" fill="#2626bc"/>
    </g>
    <path id="Path_5704" data-name="Path 5704" d="M304.479,328.331a1.2,1.2,0,0,1-.851-.353l-2.9-2.9a1.2,1.2,0,0,1,0-1.7l2.9-2.9a1.2,1.2,0,0,1,1.7,1.7l-2.046,2.046,2.046,2.046a1.2,1.2,0,0,1-.851,2.055Z" transform="translate(-227.955 -247.284)" fill="#2d58e0"/>
    <path id="Path_5705" data-name="Path 5705" d="M360.285,328.331a1.2,1.2,0,0,1-.851-2.055l2.046-2.046-2.046-2.046a1.2,1.2,0,0,1,1.7-1.7l2.9,2.9a1.2,1.2,0,0,1,0,1.7l-2.9,2.9A1.2,1.2,0,0,1,360.285,328.331Z" transform="translate(-272.504 -247.284)" fill="#2d58e0"/>
    <path id="Path_5706" data-name="Path 5706" d="M330.156,328.329a1.2,1.2,0,0,1-1.047-1.8l3.272-5.794a1.2,1.2,0,1,1,2.1,1.184l-3.272,5.794A1.2,1.2,0,0,1,330.156,328.329Z" transform="translate(-249.64 -247.282)" fill="#2d58e0"/>
    <path id="Path_5707" data-name="Path 5707" d="M140.828,387.775a1.2,1.2,0,0,1-.853-.353l-2.652-2.652a1.205,1.205,0,0,1,0-1.7l2.652-2.652a1.206,1.206,0,0,1,1.705,0l2.652,2.652a1.206,1.206,0,0,1,0,1.705l-2.652,2.652A1.2,1.2,0,0,1,140.828,387.775Zm-.948-3.858.947.947.947-.947-.947-.947Z" transform="translate(-103.946 -292.765)" fill="#6583fe"/>
    <path id="Path_5708" data-name="Path 5708" d="M340.367,124.029a1.206,1.206,0,0,1-1.206-1.206,1.448,1.448,0,0,0-1.447-1.447,1.206,1.206,0,0,1,0-2.411,1.448,1.448,0,0,0,1.447-1.447,1.206,1.206,0,0,1,2.411,0,1.448,1.448,0,0,0,1.447,1.447,1.206,1.206,0,0,1,0,2.411,1.448,1.448,0,0,0-1.447,1.447A1.206,1.206,0,0,1,340.367,124.029Z" transform="translate(-255.374 -92.61)" fill="#97ffd2"/>
    <path id="Path_5709" data-name="Path 5709" d="M171.27,437.361a1.206,1.206,0,0,1-1.206-1.206,1.448,1.448,0,0,0-1.447-1.447,1.206,1.206,0,1,1,0-2.411,1.448,1.448,0,0,0,1.447-1.447,1.206,1.206,0,1,1,2.411,0,1.448,1.448,0,0,0,1.447,1.447,1.206,1.206,0,1,1,0,2.411,1.448,1.448,0,0,0-1.447,1.447A1.206,1.206,0,0,1,171.27,437.361Z" transform="translate(-127.048 -330.395)" fill="#ff7eb8"/>
    <path id="Path_5710" data-name="Path 5710" d="M63.474,148.671a1.206,1.206,0,0,1-1.206-1.206,1.448,1.448,0,0,0-1.447-1.447,1.206,1.206,0,0,1,0-2.411,1.448,1.448,0,0,0,1.447-1.447,1.206,1.206,0,0,1,2.411,0,1.448,1.448,0,0,0,1.447,1.447,1.206,1.206,0,0,1,0,2.411,1.448,1.448,0,0,0-1.447,1.447A1.206,1.206,0,0,1,63.474,148.671Z" transform="translate(-45.242 -111.31)" fill="#ff7eb8"/>
  </g>
</svg>
