<svg xmlns="http://www.w3.org/2000/svg" width="76.777" height="101.4" viewBox="0 0 76.777 101.4">
  <g id="icon" transform="translate(0 0)">
    <path id="Path_5788" data-name="Path 5788" d="M167.363.084c-18.976,1.713-20.813,38.11-29,56.757-4.056,9.24-13.62,18.774-11.934,29.664,1.9,12.286,14.437,15.859,24.1,14.683,23.909-2.908,34.242-27.935,35.806-51.651.964-14.622,4.02-51.53-18.974-49.454Z" transform="translate(-113.546 0)" fill="#c8e6ff"/>
    <path id="Path_5789" data-name="Path 5789" d="M99.85,78.654V75.621a1.98,1.98,0,0,0-1.98-1.98h-.7V66.907h3.083a1.98,1.98,0,0,0,1.98-1.98V60.272a1.98,1.98,0,0,0-1.98-1.98H87.14a1.98,1.98,0,0,0-1.98,1.98v4.654a1.98,1.98,0,0,0,1.98,1.98h3.083v6.734h-.7a1.98,1.98,0,0,0-1.98,1.98v3.033A31.539,31.539,0,0,0,67.877,127.69a9.614,9.614,0,0,0,5.869,17.23h4.8a9.609,9.609,0,0,0,8.188-4.574A31.539,31.539,0,1,0,99.85,78.654Z" transform="translate(-62.163 -46.748)" fill="#2626bc" opacity="0.11"/>
    <path id="Path_5790" data-name="Path 5790" d="M221.849,75.876H228.8v10.3h-6.947Z" transform="translate(-190.224 -60.849)" fill="#8399fe"/>
    <path id="Path_5791" data-name="Path 5791" d="M221.849,75.876H228.8v3.313h-6.947Z" transform="translate(-190.224 -60.849)" fill="#6583fe"/>
    <path id="Path_5792" data-name="Path 5792" d="M220.626,122.714v-5.941a1.98,1.98,0,0,0-1.98-1.98H210.3a1.98,1.98,0,0,0-1.98,1.98v5.941Z" transform="translate(-179.374 -92.058)" fill="#d2deff"/>
    <path id="Path_5793" data-name="Path 5793" d="M143.228,168.6a31.5,31.5,0,1,1-2.543-12.423A31.533,31.533,0,0,1,143.228,168.6Z" transform="translate(-76.596 -109.924)" fill="#044982"/>
    <path id="Path_5794" data-name="Path 5794" d="M311.714,175.98a9.842,9.842,0,0,1-13.871,3.139L294.7,180.5a.777.777,0,0,1-1.026-1.024l1.384-3.143A9.85,9.85,0,0,1,299.6,161.76,31.649,31.649,0,0,1,311.714,175.98Z" transform="translate(-247.625 -129.724)" fill="#df6951"/>
    <path id="Path_5795" data-name="Path 5795" d="M166.686,199.743a23.825,23.825,0,1,1-1.323-7.845A23.844,23.844,0,0,1,166.686,199.743Z" transform="translate(-107.744 -141.064)" fill="#00a072"/>
    <path id="Path_5796" data-name="Path 5796" d="M305.244,203.486a9.9,9.9,0,0,1-7.4-1.44l-3.141,1.382a.777.777,0,0,1-1.026-1.024l1.384-3.143a9.822,9.822,0,0,1-1.6-6.294,9.622,9.622,0,0,1,.6-2.618A23.913,23.913,0,0,1,305.244,203.486Z" transform="translate(-247.625 -152.652)" fill="#df6951"/>
    <path id="Path_5797" data-name="Path 5797" d="M211.376,45.907H198.262a1.98,1.98,0,0,1-1.98-1.98V39.272a1.98,1.98,0,0,1,1.98-1.98h13.114a1.98,1.98,0,0,1,1.98,1.98v4.654A1.981,1.981,0,0,1,211.376,45.907Z" transform="translate(-169.72 -29.907)" fill="#df6951"/>
    <g id="Group_10101" data-name="Group 10101" transform="translate(14.545 38.125)">
      <ellipse id="Ellipse_10332" data-name="Ellipse 10332" cx="1.168" cy="1.168" rx="1.168" ry="1.168" transform="translate(0 19.386)" fill="#fff"/>
      <ellipse id="Ellipse_10333" data-name="Ellipse 10333" cx="1.168" cy="1.168" rx="1.168" ry="1.168" transform="translate(38.772 19.386)" fill="#fff"/>
      <ellipse id="Ellipse_10334" data-name="Ellipse 10334" cx="1.168" cy="1.168" rx="1.168" ry="1.168" transform="translate(19.386)" fill="#fff"/>
      <ellipse id="Ellipse_10335" data-name="Ellipse 10335" cx="1.168" cy="1.168" rx="1.168" ry="1.168" transform="translate(19.386 38.772)" fill="#fff"/>
      <ellipse id="Ellipse_10336" data-name="Ellipse 10336" cx="1.168" cy="1.168" rx="1.168" ry="1.168" transform="translate(2.597 29.079)" fill="#fff"/>
      <ellipse id="Ellipse_10337" data-name="Ellipse 10337" cx="1.168" cy="1.168" rx="1.168" ry="1.168" transform="translate(36.175 9.693)" fill="#fff"/>
      <ellipse id="Ellipse_10338" data-name="Ellipse 10338" cx="1.168" cy="1.168" rx="1.168" ry="1.168" transform="translate(2.597 9.693)" fill="#fff"/>
      <ellipse id="Ellipse_10339" data-name="Ellipse 10339" cx="1.168" cy="1.168" rx="1.168" ry="1.168" transform="translate(36.175 29.079)" fill="#fff"/>
      <ellipse id="Ellipse_10340" data-name="Ellipse 10340" cx="1.168" cy="1.168" rx="1.168" ry="1.168" transform="translate(9.693 2.597)" fill="#fff"/>
      <ellipse id="Ellipse_10341" data-name="Ellipse 10341" cx="1.168" cy="1.168" rx="1.168" ry="1.168" transform="translate(29.079 36.175)" fill="#fff"/>
      <ellipse id="Ellipse_10342" data-name="Ellipse 10342" cx="1.168" cy="1.168" rx="1.168" ry="1.168" transform="translate(29.079 2.597)" fill="#fff"/>
      <ellipse id="Ellipse_10343" data-name="Ellipse 10343" cx="1.168" cy="1.168" rx="1.168" ry="1.168" transform="translate(9.693 36.175)" fill="#fff"/>
    </g>
    <path id="Path_5798" data-name="Path 5798" d="M226.363,222.983l-2.927-2.927a.99.99,0,0,1-.274-.879l2.519-13.73a.693.693,0,0,1,1.364,0l2.519,13.73a.99.99,0,0,1-.274.879Z" transform="translate(-191.264 -164.303)" fill="#6583fe"/>
    <path id="Path_5799" data-name="Path 5799" d="M235.161,296.292l3.968,1.013a.99.99,0,0,1,.705.68l2.842,9.659a.693.693,0,0,1-1.156.686l-7.114-7.125a.99.99,0,0,1-.259-.945Z" transform="translate(-200.062 -237.613)" fill="#6583fe"/>
    <circle id="Ellipse_10344" data-name="Ellipse 10344" cx="2.927" cy="2.927" r="2.927" transform="translate(32.172 55.753)" fill="#ff7eb8"/>
    <path id="Path_5800" data-name="Path 5800" d="M313.108,153.259a9.854,9.854,0,1,0-18.05,4.786l-1.384,3.142a.777.777,0,0,0,1.025,1.024l3.142-1.384a9.851,9.851,0,0,0,15.267-7.569Z" transform="translate(-247.623 -114.484)" fill="#2a7d64"/>
    <circle id="Ellipse_10345" data-name="Ellipse 10345" cx="1.107" cy="1.107" r="1.107" transform="translate(50.779 36.902)" fill="#fff"/>
    <circle id="Ellipse_10346" data-name="Ellipse 10346" cx="1.107" cy="1.107" r="1.107" transform="translate(54.723 36.902)" fill="#fff"/>
    <circle id="Ellipse_10347" data-name="Ellipse 10347" cx="1.107" cy="1.107" r="1.107" transform="translate(58.666 36.902)" fill="#fff"/>
    <path id="Path_5801" data-name="Path 5801" d="M143.448,396.835a9.616,9.616,0,0,0,0-19.231h-4.8v19.231Z" transform="translate(-123.5 -302.821)" fill="#4369fd"/>
    <path id="Path_5860" data-name="Path 5860" d="M9.616,0A9.616,9.616,0,1,1,0,9.616,9.616,9.616,0,0,1,9.616,0Z" transform="translate(5.532 74.783)" fill="#2a7d64"/>
    <path id="Path_5802" data-name="Path 5802" d="M170.969,293.261h-2.811a.99.99,0,1,1,0-1.98h2.811a.99.99,0,0,1,0,1.98Z" transform="translate(-146.371 -233.594)" fill="#97ffd2"/>
    <path id="Path_5803" data-name="Path 5803" d="M291.219,293.261h-2.811a.99.99,0,1,1,0-1.98h2.811a.99.99,0,1,1,0,1.98Z" transform="translate(-242.806 -233.594)" fill="#97ffd2"/>
    <path id="Path_5804" data-name="Path 5804" d="M296.421,96.869a2.891,2.891,0,1,1,2.045-.846A2.882,2.882,0,0,1,296.421,96.869Zm1.345-1.546h0Zm-1.345-2.256a.911.911,0,1,0,.645.266A.909.909,0,0,0,296.421,93.068Z" transform="translate(-247.709 -73.049)" fill="#8399fe"/>
    <path id="Path_5805" data-name="Path 5805" d="M408.672,218.7a2.892,2.892,0,1,1,2.045-.847h0A2.873,2.873,0,0,1,408.672,218.7Zm0-3.8a.911.911,0,1,0,.644,1.556h0a.911.911,0,0,0-.645-1.556Z" transform="translate(-337.729 -170.747)" fill="#8399fe"/>
    <path id="Path_5806" data-name="Path 5806" d="M159.423,109.379h-.644v-.644a.99.99,0,1,0-1.98,0v.644h-.644a.99.99,0,0,0,0,1.98h.644V112a.99.99,0,0,0,1.98,0v-.644h.644a.99.99,0,1,0,0-1.98Z" transform="translate(-136.746 -86.407)" fill="#df6951"/>
    <path id="Path_5807" data-name="Path 5807" d="M215.618,481.379h-.644v-.644a.99.99,0,1,0-1.98,0v.644h-.644a.99.99,0,0,0,0,1.98h.644V484a.99.99,0,1,0,1.98,0v-.644h.644a.99.99,0,1,0,0-1.98Z" transform="translate(-181.812 -384.733)" fill="#01eca5"/>
    <path id="Path_5808" data-name="Path 5808" d="M427.594,250.567h-.644v-.644a.99.99,0,1,0-1.98,0v.644h-.644a.99.99,0,0,0,0,1.981h.644v.644a.99.99,0,1,0,1.98,0v-.644h.644a.99.99,0,0,0,0-1.981Z" transform="translate(-351.807 -199.633)" fill="#01eca5"/>
    <path id="Path_5809" data-name="Path 5809" d="M215.754,52.776a.99.99,0,0,1-.99-.99V49.657a.99.99,0,1,1,1.98,0v2.129A.99.99,0,0,1,215.754,52.776Z" transform="translate(-184.542 -39.029)" fill="#ffa8cf"/>
    <path id="Path_5810" data-name="Path 5810" d="M235.379,52.776a.99.99,0,0,1-.99-.99V49.657a.99.99,0,1,1,1.98,0v2.129A.99.99,0,0,1,235.379,52.776Z" transform="translate(-200.28 -39.029)" fill="#ffa8cf"/>
    <path id="Path_5811" data-name="Path 5811" d="M255,52.776a.99.99,0,0,1-.99-.99V49.657a.99.99,0,0,1,1.98,0v2.129A.99.99,0,0,1,255,52.776Z" transform="translate(-216.019 -39.029)" fill="#ffa8cf"/>
    <path id="Path_5812" data-name="Path 5812" d="M136.978,70.425a10.749,10.749,0,0,0,2.085-5.691A10.845,10.845,0,0,0,127.53,53.2a10.749,10.749,0,0,0-5.691,2.085,32.183,32.183,0,0,0-7.007-2.45V50.611a2.975,2.975,0,0,0-2.68-2.956V42.887h2.093a2.974,2.974,0,0,0,2.971-2.971V35.263a2.974,2.974,0,0,0-2.971-2.971H101.131a2.974,2.974,0,0,0-2.971,2.971v4.654a2.974,2.974,0,0,0,2.971,2.971h2.094v4.768a2.974,2.974,0,0,0-2.68,2.956v2.233a32.531,32.531,0,0,0-20,49.661,10.594,10.594,0,0,0-2.184,12.756.99.99,0,0,0,1.749-.929,8.616,8.616,0,1,1,3.514,3.548.99.99,0,1,0-.945,1.74,10.621,10.621,0,0,0,5.054,1.279h4.8a10.6,10.6,0,0,0,8.633-4.457,32.539,32.539,0,0,0,39.043-31.868,32.2,32.2,0,0,0-3.235-14.151Zm-9.321-15.247a8.864,8.864,0,0,1,1.362,17.674,8.8,8.8,0,0,1-5.664-1.437.99.99,0,0,0-.946-.081L119.768,72.5l1.163-2.64a.99.99,0,0,0-.081-.946,8.8,8.8,0,0,1-1.437-5.663,8.892,8.892,0,0,1,8.244-8.068ZM100.141,39.917V35.263a.991.991,0,0,1,.99-.99h13.114a.991.991,0,0,1,.99.99v4.654a.991.991,0,0,1-.99.99H101.131A.991.991,0,0,1,100.141,39.917Zm10.03,2.971v4.753h-4.966V42.887Zm-7.646,7.724a.991.991,0,0,1,.99-.99h8.345a.991.991,0,0,1,.99.99v1.848a32.784,32.784,0,0,0-10.326,0V50.611ZM77.144,84.576a30.578,30.578,0,0,1,30.544-30.544,30.231,30.231,0,0,1,12.553,2.692,10.81,10.81,0,0,0-2.614,5.09,24.624,24.624,0,0,0-7.018-1.9.99.99,0,0,0-.231,1.967,22.649,22.649,0,0,1,7.023,2.009,10.725,10.725,0,0,0,1.507,5.647L117.735,72.2a1.767,1.767,0,0,0,2.33,2.33l2.662-1.172a10.717,10.717,0,0,0,5.505,1.508c.049,0,.1,0,.146,0a22.63,22.63,0,0,1,2.163,9.714,22.864,22.864,0,0,1-27.977,22.274A10.622,10.622,0,0,0,92.536,99.69H90.547a22.852,22.852,0,0,1,14.494-37.813.99.99,0,0,0-.227-1.968A24.833,24.833,0,0,0,87.984,99.69h-.248A10.539,10.539,0,0,0,82.13,101.3a30.359,30.359,0,0,1-4.986-16.723Zm16.953,34.2a10.594,10.594,0,0,0,0-16.962,8.623,8.623,0,0,1,0,16.962Zm13.591-3.657a30.821,30.821,0,0,1-5.475-.492,10.539,10.539,0,0,0,.929-4.333,10.661,10.661,0,0,0-.085-1.319,24.844,24.844,0,0,0,29.465-24.4,24.592,24.592,0,0,0-2.071-9.938,10.811,10.811,0,0,0,5.089-2.614,30.234,30.234,0,0,1,2.692,12.553A30.579,30.579,0,0,1,107.688,115.12Z" transform="translate(-72.589 -25.897)" fill="#02223d"/>
    <path id="Path_5813" data-name="Path 5813" d="M218.725,216.746l.251.251a3.9,3.9,0,0,0,1.48,5.4l-.076.3a1.99,1.99,0,0,0,.517,1.889l7.114,7.125a1.669,1.669,0,0,0,1.185.5,1.694,1.694,0,0,0,.865-.241,1.662,1.662,0,0,0,.756-1.923l-2.842-9.659a1.989,1.989,0,0,0-1.41-1.36l-.3-.076a3.889,3.889,0,0,0-.539-1.954l.251-.251a1.982,1.982,0,0,0,.548-1.758l-2.519-13.73a1.684,1.684,0,0,0-3.312,0l-2.519,13.73A1.982,1.982,0,0,0,218.725,216.746Zm3.627.29a1.937,1.937,0,1,1-1.936,1.937A1.939,1.939,0,0,1,222.352,217.037Zm6.236,12.45-6.29-6.3.076-.3a3.919,3.919,0,0,0,3.4-2.019l.3.076Zm-6.236-26.279,2.227,12.138-.251.251a3.882,3.882,0,0,0-3.952,0l-.251-.251Z" transform="translate(-187.253 -160.294)" fill="#2626bc"/>
    <path id="Path_5814" data-name="Path 5814" d="M123.028,407.868h-3.765a2.485,2.485,0,0,0,.162-.887v-1.25H120.7a.99.99,0,1,0,0-1.98h-1.272v-1.259a1.059,1.059,0,0,1,2.118,0,.99.99,0,0,0,1.98,0,3.04,3.04,0,0,0-6.079,0v1.259h-.19a.99.99,0,1,0,0,1.98h.19v1.25a.5.5,0,0,1-.149.359,1.47,1.47,0,0,0,1.039,2.508h4.693a.99.99,0,0,0,0-1.98Z" transform="translate(-105.549 -320.343)" fill="#fff"/>
  </g>
</svg>
