<svg id="icon" xmlns="http://www.w3.org/2000/svg" width="108.676" height="114.773" viewBox="0 0 108.676 114.773">
  <path id="Path_5711" data-name="Path 5711" d="M19.1,30.2C23.579,17.261,32-5.18,49.972,1.08c6.995,2.437,9.192,11.693,16.223,12.847,6.641,1.09,12.263-5.437,18.581-6.675,7.849-1.538,16.155.519,19.137,8.178,3.568,9.163-6.948,19.444-4.406,27.811,4.194,13.8,19.7-9.072,22.468,13.2,3.879,31.165-30.666,86.645-53.939,41.022-11.8-23.134-24.168-6.91-42.564-18.418C8,68.116,13.411,46.636,19.1,30.2Z" transform="translate(-13.599 0)" fill="#c8e6ff"/>
  <path id="Path_5712" data-name="Path 5712" d="M124.421,126.286a25.376,25.376,0,0,0-11.94-18.993h5.658a2.242,2.242,0,0,0,2.242-2.242V87.579a2.242,2.242,0,0,0-2.242-2.242H100.666a2.234,2.234,0,0,0-1.677.758,105.31,105.31,0,0,0-17.25-30.679,4.487,4.487,0,0,0-6.908,0c-1.155,1.391-2.475,3.08-3.891,5.07V53.558a2.092,2.092,0,0,0-2.091-2.091H49.815a2.092,2.092,0,0,0-2.091,2.091V69.037a2.092,2.092,0,0,0,2.091,2.091H64.334a122.209,122.209,0,0,0-11.914,32.9,25.341,25.341,0,0,0-20.271,22.255,2.238,2.238,0,0,0,2.233,2.452H49.411c-.019.506-.038,1.013-.052,1.524a4.487,4.487,0,0,0,4.483,4.615H60.27l-1.418,2.691L56.2,142.6a2.242,2.242,0,0,0,1.984,3.286h3.753v3.1a2.242,2.242,0,0,0,2.242,2.242h3.475a2.242,2.242,0,0,0,2.242-2.242v-3.1H86.677v3.1a2.242,2.242,0,0,0,2.242,2.242h3.475a2.242,2.242,0,0,0,2.242-2.242v-3.1h3.753a2.242,2.242,0,0,0,1.984-3.286l-2.654-5.037L96.3,134.876h6.429a4.486,4.486,0,0,0,4.483-4.615c-.015-.511-.033-1.018-.052-1.525h15.029a2.236,2.236,0,0,0,2.232-2.45Z" transform="translate(-27.982 -39.93)" fill="#2626bc" opacity="0.11"/>
  <path id="Path_5713" data-name="Path 5713" d="M188.778,446.76H185.3a2.242,2.242,0,0,1-2.242-2.242v-6.939h7.958v6.939A2.242,2.242,0,0,1,188.778,446.76Z" transform="translate(-145.074 -339.488)" fill="#9fb0fe"/>
  <path id="Path_5714" data-name="Path 5714" d="M183.062,437.579h7.958v6.192h-7.958Z" transform="translate(-145.074 -339.488)" fill="#8399fe"/>
  <path id="Path_5715" data-name="Path 5715" d="M299.154,446.76H295.68a2.242,2.242,0,0,1-2.242-2.242v-6.939H301.4v6.939A2.242,2.242,0,0,1,299.154,446.76Z" transform="translate(-230.707 -339.488)" fill="#9fb0fe"/>
  <path id="Path_5716" data-name="Path 5716" d="M293.438,437.579H301.4v6.192h-7.958Z" transform="translate(-230.707 -339.488)" fill="#8399fe"/>
  <path id="Path_5717" data-name="Path 5717" d="M198.758,410.507H158.552a2.242,2.242,0,0,1-1.984-3.286l2.654-5.037,2.34-4.441h34.185l2.34,4.441,2.654,5.037A2.242,2.242,0,0,1,198.758,410.507Z" transform="translate(-124.317 -308.582)" fill="#d2deff"/>
  <path id="Path_5718" data-name="Path 5718" d="M208.176,402.184H169.31l2.34-4.441h34.185Z" transform="translate(-134.405 -308.582)" fill="#b7c5ff"/>
  <path id="Path_5719" data-name="Path 5719" d="M372.389,291H349.43V265.813a25.332,25.332,0,0,1,25.192,22.735A2.236,2.236,0,0,1,372.389,291Z" transform="translate(-274.148 -206.227)" fill="#9fb0fe"/>
  <path id="Path_5720" data-name="Path 5720" d="M366.8,272.715H350.867a2.235,2.235,0,0,1-1.437-.52v-6.382A25.222,25.222,0,0,1,366.8,272.715Z" transform="translate(-274.148 -206.227)" fill="#8399fe"/>
  <path id="Path_5721" data-name="Path 5721" d="M50.149,288.548a25.327,25.327,0,0,1,25.193-22.734V291H52.382A2.238,2.238,0,0,1,50.149,288.548Z" transform="translate(-41.947 -206.227)" fill="#9fb0fe"/>
  <path id="Path_5722" data-name="Path 5722" d="M152.424,45.467c-8.115,9.768-24.318,34.225-25.473,74.845a4.487,4.487,0,0,0,4.483,4.615h48.888a4.486,4.486,0,0,0,4.483-4.615c-1.155-40.62-17.357-65.077-25.473-74.845a4.487,4.487,0,0,0-6.908,0Z" transform="translate(-101.54 -34.016)" fill="#00a072"/>
  <path id="Path_5723" data-name="Path 5723" d="M236.438,51.394a12.17,12.17,0,0,1-15.9,0c1.645-2.369,3.176-4.342,4.495-5.929a4.489,4.489,0,0,1,6.909,0C233.261,47.052,234.792,49.025,236.438,51.394Z" transform="translate(-174.151 -34.014)" fill="#02ffb3"/>
  <path id="Path_5724" data-name="Path 5724" d="M352.769,221.091h-4.687a2.242,2.242,0,0,1-2.242-2.242V201.378a2.239,2.239,0,0,1,1.473-2.1A131.554,131.554,0,0,1,352.769,221.091Z" transform="translate(-271.363 -154.603)" fill="#ff5ba8"/>
  <path id="Path_5725" data-name="Path 5725" d="M194.672,73.7v11.71A2.092,2.092,0,0,1,192.58,87.5h-6.16A104.275,104.275,0,0,1,194.672,73.7Z" transform="translate(-147.679 -57.181)" fill="#ff5ba8"/>
  <path id="Path_5727" data-name="Path 5727" d="M365.557,206.516H348.085a2.242,2.242,0,0,1-2.242-2.242V186.8a2.242,2.242,0,0,1,2.242-2.242h17.472A2.242,2.242,0,0,1,367.8,186.8v17.472A2.242,2.242,0,0,1,365.557,206.516Z" transform="translate(-271.365 -143.188)" fill="#80d1b8"/>
  <path id="Path_5728" data-name="Path 5728" d="M423.076,186.8v17.472a2.241,2.241,0,0,1-2.242,2.242h-3.741a2.241,2.241,0,0,0,2.242-2.242V186.8a2.24,2.24,0,0,0-2.242-2.242h3.741A2.24,2.24,0,0,1,423.076,186.8Z" transform="translate(-326.643 -143.19)" fill="#97ffd2"/>
  <path id="Path_5729" data-name="Path 5729" d="M142.881,35.558V51.037a2.092,2.092,0,0,1-2.091,2.091H121.755a2.092,2.092,0,0,1-2.091-2.091V35.558a2.092,2.092,0,0,1,2.091-2.091h19.034A2.092,2.092,0,0,1,142.881,35.558Z" transform="translate(-95.888 -25.965)" fill="#9fb0fe"/>
  <path id="Path_5730" data-name="Path 5730" d="M144.034,55.028h-3.745a1.121,1.121,0,0,1,0-2.242h3.745a1.121,1.121,0,1,1,0,2.242Z" transform="translate(-111.02 -40.953)" fill="#dcfdee"/>
  <path id="Path_5731" data-name="Path 5731" d="M203.272,35.558V51.037a2.092,2.092,0,0,1-2.091,2.091H197.5a2.092,2.092,0,0,0,2.091-2.091V35.558a2.092,2.092,0,0,0-2.091-2.091h3.676A2.092,2.092,0,0,1,203.272,35.558Z" transform="translate(-156.279 -25.965)" fill="#b7c5ff"/>
  <path id="Path_5732" data-name="Path 5732" d="M142.881,60.877V72.3a2.092,2.092,0,0,1-2.091,2.091H121.755a2.092,2.092,0,0,1-2.091-2.091V68.795h3.945a2.236,2.236,0,0,0,1.585-.657l2.977-2.977a2.25,2.25,0,0,1,1.587-.657h8.568a2.256,2.256,0,0,0,.879-.179,2.21,2.21,0,0,0,.706-.477Z" transform="translate(-95.888 -47.23)" fill="#97ffd2"/>
  <path id="Path_5733" data-name="Path 5733" d="M203.272,60.877V72.3a2.092,2.092,0,0,1-2.091,2.091H197.5A2.092,2.092,0,0,0,199.6,72.3V64.325a2.21,2.21,0,0,0,.706-.477Z" transform="translate(-156.279 -47.23)" fill="#dcfdee"/>
  <ellipse id="Ellipse_10328" data-name="Ellipse 10328" cx="10.12" cy="10.12" rx="10.12" ry="10.12" transform="translate(44.218 30.331)" fill="#044982"/>
  <path id="Path_5735" data-name="Path 5735" d="M236.011,149.7a10.121,10.121,0,0,1-18.821,5.172,10.124,10.124,0,0,0,13.551-14.058A10.123,10.123,0,0,1,236.011,149.7Z" transform="translate(-171.552 -109.247)" fill="#ffdbed"/>
  <path id="Path_5736" data-name="Path 5736" d="M122.737,150.715a3.272,3.272,0,1,1,2.315-.957A3.263,3.263,0,0,1,122.737,150.715Zm0-4.3a1.032,1.032,0,1,0,.73.3A1.025,1.025,0,0,0,122.737,146.412Z" transform="translate(-95.732 -111.852)" fill="#8399fe"/>
  <path id="Path_5737" data-name="Path 5737" d="M334.519,54.736a3.274,3.274,0,1,1,2.315-.959h0A3.251,3.251,0,0,1,334.519,54.736Zm0-4.3a1.032,1.032,0,1,0,.729,1.761h0a1.031,1.031,0,0,0-.73-1.761Z" transform="translate(-260.041 -37.388)" fill="#ff7eb8"/>
  <path id="Path_5738" data-name="Path 5738" d="M412.1,147.188h-.729v-.729a1.121,1.121,0,1,0-2.242,0v.729H408.4a1.121,1.121,0,0,0,0,2.242h.729v.729a1.121,1.121,0,0,0,2.242,0v-.729h.729a1.121,1.121,0,0,0,0-2.242Z" transform="translate(-319.029 -112.759)" fill="#01eca5"/>
  <path id="Path_5739" data-name="Path 5739" d="M97.925,178.65H97.2v-.729a1.121,1.121,0,0,0-2.242,0v.729h-.729a1.121,1.121,0,0,0,0,2.242h.729v.729a1.121,1.121,0,0,0,2.242,0v-.729h.729a1.121,1.121,0,0,0,0-2.242Z" transform="translate(-75.282 -137.168)" fill="#ff7eb8"/>
  <path id="Path_5740" data-name="Path 5740" d="M118.519,419.634h-.729v-.729a1.121,1.121,0,1,0-2.242,0v.729h-.729a1.121,1.121,0,1,0,0,2.242h.729v.729a1.121,1.121,0,0,0,2.242,0v-.729h.729a1.121,1.121,0,1,0,0-2.242Z" transform="translate(-91.26 -324.132)" fill="#01eca5"/>
  <path id="Path_5741" data-name="Path 5741" d="M406.646,347.108h-6.468a1.121,1.121,0,1,1,0-2.242h6.468a1.121,1.121,0,1,1,0,2.242Z" transform="translate(-312.65 -267.559)" fill="#d2deff"/>
  <path id="Path_5742" data-name="Path 5742" d="M81.678,347.108H75.21a1.121,1.121,0,0,1,0-2.242h6.468a1.121,1.121,0,0,1,0,2.242Z" transform="translate(-60.529 -267.559)" fill="#d2deff"/>
  <path id="Path_5743" data-name="Path 5743" d="M367.556,209.189a2.917,2.917,0,1,1,2.917-2.917A2.92,2.92,0,0,1,367.556,209.189Zm0-3.591a.675.675,0,1,0,.675.675A.676.676,0,0,0,367.556,205.6Z" transform="translate(-285.948 -157.77)" fill="#fff"/>
  <path id="Path_5744" data-name="Path 5744" d="M401.885,243.519A2.917,2.917,0,1,1,404.8,240.6,2.92,2.92,0,0,1,401.885,243.519Zm0-3.591a.675.675,0,1,0,.675.675A.676.676,0,0,0,401.885,239.928Z" transform="translate(-312.581 -184.405)" fill="#fff"/>
  <path id="Path_5745" data-name="Path 5745" d="M376.743,222.946a1.121,1.121,0,0,1-.792-1.913l6.363-6.363a1.121,1.121,0,1,1,1.585,1.585l-6.363,6.363A1.118,1.118,0,0,1,376.743,222.946Z" transform="translate(-294.469 -166.293)" fill="#fff"/>
  <path id="Path_5746" data-name="Path 5746" d="M234.365,254.07h-1.2a2.649,2.649,0,0,1-2.646-2.646v-3.689a2.649,2.649,0,0,1,2.646-2.646h1.2a2.649,2.649,0,0,1,2.646,2.646v3.689A2.649,2.649,0,0,1,234.365,254.07Zm-1.2-6.739a.4.4,0,0,0-.4.4v3.689a.4.4,0,0,0,.4.4h1.2a.4.4,0,0,0,.4-.4v-3.689a.4.4,0,0,0-.4-.4Z" transform="translate(-181.897 -190.148)" fill="#ffdbed"/>
  <path id="Path_5747" data-name="Path 5747" d="M268.373,254.07a1.121,1.121,0,0,1-1.121-1.121v-5.618h-.1a1.121,1.121,0,0,1,0-2.242h1.22a1.121,1.121,0,0,1,1.121,1.121v6.739A1.121,1.121,0,0,1,268.373,254.07Z" transform="translate(-209.445 -190.148)" fill="#ffdbed"/>
  <path id="Path_5748" data-name="Path 5748" d="M139.658,104.293a26.227,26.227,0,0,0-9.55-17.758h2.153a3.366,3.366,0,0,0,3.363-3.363V65.7a3.366,3.366,0,0,0-3.363-3.362H114.789a3.335,3.335,0,0,0-1.116.194,105.489,105.489,0,0,0-16.95-29.711,5.608,5.608,0,0,0-8.632,0q-.956,1.151-1.908,2.387V31.68a3.216,3.216,0,0,0-3.213-3.213H63.937a3.216,3.216,0,0,0-3.213,3.213V43.646s0,0,0,0v3.508a3.216,3.216,0,0,0,3.212,3.212H76.593a121.574,121.574,0,0,0-9.111,23.244q-1.046,3.737-1.88,7.595a26.451,26.451,0,0,0-20.446,23.084A3.343,3.343,0,0,0,46,106.867a3.377,3.377,0,0,0,2.5,1.112H62.373c0,.124-.01.247-.013.371a5.607,5.607,0,0,0,5.6,5.767h4.572L69.329,120.2a3.362,3.362,0,0,0,2.975,4.93h2.632v1.983a3.366,3.366,0,0,0,3.362,3.363h3.475a3.366,3.366,0,0,0,3.362-3.363v-1.983H99.678v1.983a3.366,3.366,0,0,0,3.362,3.363h3.475a3.366,3.366,0,0,0,3.362-3.363v-1.983h2.632a3.362,3.362,0,0,0,2.975-4.93l-3.206-6.085h4.572a5.607,5.607,0,0,0,5.6-5.767c0-.124-.009-.247-.012-.371H136.31a3.378,3.378,0,0,0,2.5-1.112A3.341,3.341,0,0,0,139.658,104.293ZM89.815,34.253a3.366,3.366,0,0,1,5.184,0c1.17,1.408,2.465,3.069,3.832,4.987a11.047,11.047,0,0,1-12.648.139v-.413c1.189-1.657,2.41-3.243,3.632-4.712Zm-5.874,12.9a.97.97,0,0,1-.97.97H63.937a.972.972,0,0,1-.971-.971V44.771H65.79a3.375,3.375,0,0,0,2.377-.985l2.975-2.975a1.123,1.123,0,0,1,.8-.331h8.568a3.368,3.368,0,0,0,1.319-.269,3.309,3.309,0,0,0,1.058-.716l1.057-1.057v8.72Zm-20-16.449H82.971a.972.972,0,0,1,.971.971v3.588l-2.647,2.647a1.077,1.077,0,0,1-.345.233,1.132,1.132,0,0,1-.443.091H71.939a3.352,3.352,0,0,0-2.379.985L66.58,42.2a1.121,1.121,0,0,1-.79.327H62.966V31.68A.972.972,0,0,1,63.937,30.709ZM48.5,105.737a1.118,1.118,0,0,1-.839-.373,1.082,1.082,0,0,1-.279-.845A24.216,24.216,0,0,1,65.095,83.643a147.78,147.78,0,0,0-2.637,22.094H48.5Zm34.39,21.378a1.122,1.122,0,0,1-1.121,1.121H78.3a1.122,1.122,0,0,1-1.121-1.121v-1.983h5.716Zm24.742,0a1.122,1.122,0,0,1-1.121,1.121h-3.475a1.122,1.122,0,0,1-1.121-1.121v-1.983h5.716Zm11.626-16.259a3.336,3.336,0,0,1-2.411,1.019H84.871a1.121,1.121,0,0,0,0,2.242h24.874l3.757,7.13a1.121,1.121,0,0,1-.992,1.643H72.3a1.121,1.121,0,0,1-.992-1.643l3.757-7.13h3.5a1.121,1.121,0,0,0,0-2.242H67.963a3.366,3.366,0,0,1-3.362-3.462,141.969,141.969,0,0,1,5.04-34.2,118.865,118.865,0,0,1,9.487-23.848h3.843a3.215,3.215,0,0,0,3.213-3.213V41.994a13.292,13.292,0,0,0,13.926-.914,109.528,109.528,0,0,1,11.746,22.979,3.339,3.339,0,0,0-.43,1.64v6.513a1.121,1.121,0,0,0,2.242,0V65.7a1.122,1.122,0,0,1,1.121-1.121h17.472a1.122,1.122,0,0,1,1.121,1.121V83.172a1.122,1.122,0,0,1-1.121,1.121H114.788a1.122,1.122,0,0,1-1.121-1.121v-4.66a1.121,1.121,0,0,0-2.242,0v4.66a3.366,3.366,0,0,0,3.363,3.362h3.2a147.989,147.989,0,0,1,2.226,21.879,3.34,3.34,0,0,1-.951,2.443Zm17.886-5.492a1.118,1.118,0,0,1-.839.373H122.358a149.347,149.347,0,0,0-2.092-19.2h6.016a24.047,24.047,0,0,1,11.147,17.985A1.083,1.083,0,0,1,137.149,105.364Z" transform="translate(-38.069 -22.086)" fill="#2626bc"/>
  <path id="Path_5749" data-name="Path 5749" d="M217.1,130.306a11.241,11.241,0,1,0,11.241,11.241A11.254,11.254,0,0,0,217.1,130.306Zm0,20.241a9,9,0,1,1,9-9A9.01,9.01,0,0,1,217.1,150.547Z" transform="translate(-162.757 -101.096)" fill="#2626bc"/>
  <path id="Path_5750" data-name="Path 5750" d="M224.2,160.732a1.121,1.121,0,0,1-1.121-1.121,8,8,0,0,1,2.358-5.694,1.121,1.121,0,0,1,1.585,1.585,5.772,5.772,0,0,0-1.7,4.109A1.121,1.121,0,0,1,224.2,160.732Z" transform="translate(-176.121 -119.16)" fill="#ffdbed"/>
</svg>
