<svg xmlns="http://www.w3.org/2000/svg" xmlns:xlink="http://www.w3.org/1999/xlink" width="353" height="6" viewBox="0 0 353 6">
  <defs>
    <clipPath id="clip-path">
      <rect id="Rectangle_36" data-name="Rectangle 36" width="353" height="6" transform="translate(392.667 340)" fill="#c4c4c4"/>
    </clipPath>
  </defs>
  <g id="Rectangle_36-2" data-name="Rectangle 36" transform="translate(-392.667 -340)" clip-path="url(#clip-path)">
    <path id="Vector" d="M440.147,339.574l.765-.1-1.452-.113.715-.1c.705-.007,1.6.125,2.109.044.069-.074-.7-.089-.885-.145a2.528,2.528,0,0,1-.4-.173c.384,0,.8.006,1.237.028.581.037,1.153.052,1.653.043,1.021,0,2.01-.022,3.121-.032l-.349-.172,1.427.025c.15.012.334-.012.481,0a8.836,8.836,0,0,0,2.362-.026c.124-.018.273-.032.442-.041,1.652.015,3.122.2,4.6.28.278.023.543.053.777.088.51.068,1.08.122,1.657.157s1.145.049,1.649.042c1.115-.014,2.369.021,3.64.1.378.027.757.043,1.113.048s.683,0,.957-.021l.855.091c.381-.045.86-.073,1.409-.081s1.155,0,1.783.031c.669.032,1.35.05,2.044.084,1.435.063,2.834.1,4.155.1,1.965.026,3.885.042,5.866.079,1.24.015,2.45.017,3.621.007,1.4,0,2.915.033,4.465.111h0a4.354,4.354,0,0,1-1.224.073c-1.48,0-2.991-.02-4.512-.032-.685,0-1.352,0-2,.009-1.078.008-2.211,0-3.382-.033-1.851-.027-3.646-.03-5.367-.009-.135.005-.26.013-.371.023-.024.008-.03.018-.017.028a.263.263,0,0,0,.091.032,1.7,1.7,0,0,0,.176.028c.068.008.143.014.215.017.676.053,1.4.109,2.045.111l.077,0,.073.008c1.427.111,2.616.077,3.737.085,1.859.035,3.653.042,5.358.019.257,0,.535,0,.821.012,1.778.037,3.445.025,4.925-.036.608-.018,1.175-.049,1.828-.057.4-.006.753-.026,1.034-.059a2.128,2.128,0,0,0,.6-.131c.272.025.548.046.826.064a3.767,3.767,0,0,0,.448,0c.122-.008.2-.024.209-.046.057-.061-.321-.087-.65-.109.2-.015.428-.025.673-.03,1.383-.029,2.863-.029,4.408,0,1.2.042,2.163-.014,3.42.05a3.181,3.181,0,0,0,.418-.016c.367-.029.822-.04,1.324-.031s1.037.036,1.559.08a22,22,0,0,1,3.119,0c.314.066-.054.058-.072.077s0,0-.125-.01a33.783,33.783,0,0,1-4.1.107c-.3,0-.585.011-.855.023-.408.017-.866.021-1.354.011-.534,0-1.027.006-1.454.031a4.817,4.817,0,0,0-.6.037c-.152.022-.244.052-.266.088.16.026.338.049.527.069a25.47,25.47,0,0,0,2.784.069c1.394-.053,3.043-.035,4.521-.064,1-.016,2.06-.013,3.163.009l-.036.039c.129.014.265.024.4.031l.015-.016a1.946,1.946,0,0,0-.232-.039l-.326-.025c.224-.01.436-.035.667-.024.488.02.956.026,1.375.016a10.3,10.3,0,0,0,1.067-.07c.5-.049,1.122-.076,1.821-.078q.8-.016,1.55-.048s.036-.038.273-.061c-.219-.023-.448-.04-.676-.053-1-.026-2-.049-2.977-.064-.362,0-.7.009-1.017.024-.867.023-1.837.015-2.854-.023l-.3-.023c.3-.087,1.276-.014,1.683-.075.243,0,.671,0,.658-.014-.031-.02-.033-.038-.005-.054a.49.49,0,0,1,.165-.039,2.933,2.933,0,0,1,.3-.016c.119,0,.25,0,.384.01,1.12.036,2.18.038,3.113.005.353,0,.746.007,1.1.006.214,0,.41,0,.577-.013a27.66,27.66,0,0,1,3.245-.05c.606.014,1.175.011,1.676-.01a5.452,5.452,0,0,1,.751.059l1.069.035-1.387.074a2.067,2.067,0,0,0,.989.177c.7,0,1.385,0,2.048-.005.49-.007.9-.04,1.555,0a3,3,0,0,0,.318,0c.782-.055,1.718-.075,2.745-.061a11.815,11.815,0,0,1,2.274.04c.279-.068-.209-.092-.5-.128.7,0,1.411-.014,2.135-.012.219-.006.467,0,.727.009s.522.032.768.059a3.765,3.765,0,0,0,.4.036,2.36,2.36,0,0,0,.349-.008c.38-.032.98-.013,1.3-.064a3.34,3.34,0,0,1,.447-.009c.176.006.359.021.516.043h0c-.176.009-.332.022-.467.039-.482.055-.317.137.273.252.93-.017,1.879-.026,2.742-.058.482-.026,1.07-.026,1.7,0s1.267.076,1.849.146a6.641,6.641,0,0,0,.677.049,3.206,3.206,0,0,0,.535-.024c.076-.022.1-.05.076-.08l-.6-.047.033-.035.874-.014c.462-.005.943,0,1.38-.009.643-.023,1.374-.022,2.148,0,.713.026,1.415.044,2.1.054.662.01,1.15-.051,1.784-.067.479-.012,1-.011,1.555,0,.952.027,1.829.017,2.553-.028a5.413,5.413,0,0,0,2,.156l.368-.02.095.042.281-.013c.524-.014,1.048-.028,1.594-.037.757.01,1.57.051,2.361.119a3.07,3.07,0,0,1,.481.089c.129.034.407.139.612.206-.239.054-.5.105-.694.166-.02.01-.019.022,0,.035a.425.425,0,0,0,.117.038c.056.012.127.024.207.033s.167.017.253.021c.169.01.336.016.494.018.781,0,1.53-.015,2.24-.039a8.251,8.251,0,0,1,1.007-.017c.391.014.8.046,1.153.093.93-.04,2.006-.043,3.153-.009,1.222-.042,2.688,0,3.834-.076-.03.032.081.086.241.115.254.045.542.086.853.122l2.4.05a2.648,2.648,0,0,0,.322.115,2.3,2.3,0,0,0,.434.08,5.56,5.56,0,0,0,.587.034,14.087,14.087,0,0,1,1.446.034,27.858,27.858,0,0,1-3.346.014c-1.2-.044-2.353-.06-3.423-.047a6.287,6.287,0,0,0-.932.048,6.344,6.344,0,0,1-1.636.082c-.583-.013-1.118-.005-1.561.024a4.647,4.647,0,0,0-.987.142c-.057.061.057.111.567.141l2.12.117q.476-.032.9-.074c.478-.038,1.065-.054,1.714-.045s1.344.04,2.031.093a7.381,7.381,0,0,0,.96.037c.227-.02.437-.042.628-.068.04-.016.057-.035.051-.055.135.008.27.018.4.031a11.352,11.352,0,0,0,2.6.093c.2-.015.358-.038.563-.056a3.473,3.473,0,0,1,.464-.036c1.469.039,1.915-.15,3.157-.157a.228.228,0,0,0,.113-.033c.013-.013,0-.029-.041-.044-.086-.014-.186-.025-.291-.033s-.212-.013-.31-.014a10.638,10.638,0,0,0-1.432.036c-.251.018-.516.033-.795.045l-1.213-.253c1.2.011,2.344,0,3.4-.038.231-.016.615,0,.937,0h2.366a9.272,9.272,0,0,1,1.575.04s.447.011.568,0,.662-.1.984-.161c.366.011.869.047,1.1.031.4-.039.755-.086,1.047-.142l1.422.059c-.01.067-.069.13-.178.189s-.122.124-.012.2a2.259,2.259,0,0,0,.647.216l1.367.375c.228.024.471.039.7.043a4.511,4.511,0,0,0,.57-.02c.613-.052,1.3-.095,1.912-.147.776.061.561.175,1.12.267l1.828.143c.264.148.534.29-.329.35-.171.011-.063.067-.222.093.653.106,1.381.132,2.048.194a5.319,5.319,0,0,1,.639.15,4.3,4.3,0,0,0,1.016.218,14.35,14.35,0,0,0,1.527.108c.841.033,1.7.087,2.537.16.286.025.581.043.865.051s.551.008.782,0a17.82,17.82,0,0,0,2.052-.153,17.352,17.352,0,0,1,2.038-.11,14.11,14.11,0,0,1,2.459.443l-1.457.034c-.06.064.027.143-.57.148s-.3.063-.115.122a1.548,1.548,0,0,0,.366.086c.172.025.376.044.578.053l1.229.065c.436.025.859.033,1.224.023a4.842,4.842,0,0,0,.844-.079,6.473,6.473,0,0,1,.859-.085,8.451,8.451,0,0,0,1.107-.148l1.738.067a1.712,1.712,0,0,1,.694-.125,12.155,12.155,0,0,1,1.322.011l1.172.04a4.286,4.286,0,0,0,2-.151l-1.536-.282c.238-.081.466-.153.695-.225a12.932,12.932,0,0,0-1.482-.253q-.825-.117-1.7-.225c-.63-.073-1.3-.136-2.08-.217-.135-.028-.33-.077-.582-.125s-.515-.09-.788-.134c.06-.064.115-.122.022-.195.486.018.986.054,1.456.1s.893.112,1.232.182c.057.012.127.024.206.034s.165.018.251.023a6.577,6.577,0,0,1,1.659.236,9.582,9.582,0,0,0,1.025.139c.751.059,1.484.137,2.2.2.219.022.448.04.676.053.753.04,1.509.1,2.228.174.236.019.461.044.657.074a3.4,3.4,0,0,1,.47.1c-.185.042-.289.094-.3.152a3.722,3.722,0,0,0,.733.164c.245.054-.246.033-.414.04-.689.019-.82.043-.422.163a.642.642,0,0,1,.255.113c.035.036.018.07-.051.1a3.4,3.4,0,0,1-.638.336c.308.072.829.147.876.241a.485.485,0,0,0,.164.063,3.026,3.026,0,0,0,.314.057c.328.036.626.08.869.129a2.5,2.5,0,0,1,.533.153.815.815,0,0,0,.244.062,3.925,3.925,0,0,0,.415.038,3.057,3.057,0,0,0,.435-.008c.106-.012.156-.033.137-.057a.167.167,0,0,0-.052-.145c.033-.035.066-.071-.042-.127.516.015,1.055.052,1.56.105a12.448,12.448,0,0,1,1.3.2c.383.078.736.161,1.16.252-.1.109-.1.109.8.29l4.909.039.993.115a6.333,6.333,0,0,0,1.749.026l.4-.058a8.519,8.519,0,0,0,2.316-.005c.159.088.266.117.226.131a4.755,4.755,0,0,1-1.322.348c-.155.022-.267.055-.447.075-.587.11-.739.272-.425.452a3.685,3.685,0,0,0,.688.24,13.454,13.454,0,0,1-1.816.3,11.765,11.765,0,0,0-1.544.241,8.914,8.914,0,0,1-1.554.223,2.858,2.858,0,0,0-.724.112c-.055.136.017.281.214.43a.693.693,0,0,0,.318.142,5.877,5.877,0,0,0,.687.133s.132.031.2.05c.035.164-.186.311-.648.432a1.566,1.566,0,0,1-.443.073c-.212.014-.476.017-.763.008-.606-.013-1.174-.009-1.761-.014a14.806,14.806,0,0,0-1.621.053,1.932,1.932,0,0,0-.816.194.152.152,0,0,1-.063.067.063.063,0,0,0-.033.035l1.32.255-1.541.124c-.1.109.624.166.982.242l-.233.047a7.116,7.116,0,0,1-1.038-.04l-.351-.027-.048.051c-.229.072-1.024,0-1.344.057s-.1.109.361.159c.322.037.669.066,1.015.084s.682.025.983.02a3.471,3.471,0,0,0,.442-.041c.644-.086,1.353-.162,2.122-.227.59-.057,1.325-.087,2.151-.087a8.177,8.177,0,0,1,.823.025,6.4,6.4,0,0,1,.754.1h0l.428,0s.229.042.2.05c-.179.134-.008.293.486.455h0l-.449.02c-.637-.008-.244.088-.345.138a7.019,7.019,0,0,0-1.26.026h-.322l.125.01.155-.022.59.087c-.286.019-.495.041-.747.052a2.054,2.054,0,0,0-.33.042c-.078.019-.119.042-.123.067s-.083.073-.229.1a4.27,4.27,0,0,1-.606.046,5.6,5.6,0,0,0-.653.066l.732.25s-.375-.029-.174.014l.03-.032.455.06a2.067,2.067,0,0,0,.759.021c.2-.043.15.012.246,0a1.4,1.4,0,0,1-.443.1c-.215.022-.456.039-.72.051.452.177.474.182-.223.237s-.467.125-1.047.142.064.132.448.152c.285.013.575.034.85.062s.528.064.741.1l-.133.141c-.169-.01-.338-.023-.5-.039a6.891,6.891,0,0,0-1.557-.087l.225.1-1.734-.042c.036.079.29.167.71.245h0a.34.34,0,0,0-.136.144c-.033.035-.2.015-.315.02a6.716,6.716,0,0,0-.961.08c-.232.042-.358.1-.367.161-.051.055.549.16.932.152.956,0,1.986.03,3.034.089a10.97,10.97,0,0,1,1.8-.056c.013.065-.129.12-.4.156a8.228,8.228,0,0,1-1.125.042c.242.143,1.672.165,1.718.317-.356-.007-.735-.028-1.1-.061s-.7-.078-.979-.129c-.06-.013-.135-.024-.219-.033s-.174-.016-.262-.019-.171,0-.241,0a.856.856,0,0,0-.159.019c.192.053.4.114.646.171a2.344,2.344,0,0,0,.478.092c1.327.1,1.94.31,3.083.437.3.023.328.108.066.1a6.474,6.474,0,0,0-.656.011,1.07,1.07,0,0,0-.359.068,7.231,7.231,0,0,1-.731.091c1.164.206,2.56.383,4.056.517.283.026.58.041.848.042.845-.009,1.74,0,2.667.022.329.006.634,0,.9-.013a7.409,7.409,0,0,1,2.153.168l1.007.244a2.561,2.561,0,0,1-.36.154l.794.127,6.219-.382,1.205.29,1.781-.037c.135.007.271.018.4.031.349.086.62.169,1,.25s1.077.084,1.551.18a15.245,15.245,0,0,0,1.556.146c.048.078-.019.149-.2.209-.063.067-.374.112-.434.176,0,.064-.122.12-.349.162a6.487,6.487,0,0,1-.954.08c-1.13.149-2.484.261-4.022.333a2.576,2.576,0,0,0-.331.031.29.29,0,0,0-.153.055c-.005.062-.114.117-.318.161a5.605,5.605,0,0,1-.861.091.949.949,0,0,0-.211.025,1.161,1.161,0,0,0-.295.047c-.055.021-.063.047-.021.075a.856.856,0,0,0,.258.084c.127.027.289.052.47.071q.392.047.8.09c-.018.019-.293.025-.255.042.1.054.121.1.056.149a1.138,1.138,0,0,1-.431.107l1.425.428a22.107,22.107,0,0,1,2.438.266c0,.021-.044.039-.122.052a2.3,2.3,0,0,1-.325.023c-.362.013-.7.035-1.094.049a4.715,4.715,0,0,0-.587.055.587.587,0,0,0-.282.1l.848.156c-.283.043-.491.065-.678.092a2.182,2.182,0,0,0,.5.151c.234.049.523.093.844.13.087.007.175.012.26.015s.166,0,.237,0a11.111,11.111,0,0,1,2.2.114c.752.086,1.16.139,1.714.206l1.077,0c.269.032.507.07.7.112a1.453,1.453,0,0,1,.394.128,3.406,3.406,0,0,1-.879.048,23.719,23.719,0,0,1-2.691,0c-.25-.02-.512,0-.758.006q-.8.022-1.534.059c-.323.022-.626.048-.906.077-.084.09,1.072.146.406.2a2.846,2.846,0,0,0,.426.033c.743.049,1.479.07,2.122.059,1.234-.026,2.629,0,4.07.073,1.556.076,3.055.1,4.373.066.5-.007,1.059.006,1.631.038.674.045,1.346.07,1.972.075.208,0,.438,0,.672.019s.466.036.676.063h0c-.021.022-.227.041-.182.051a13.427,13.427,0,0,0,1.852.489,8.987,8.987,0,0,0,1.908.028c.456-.085.3-.152-.561-.347a6.524,6.524,0,0,1,.653.02,5.1,5.1,0,0,1,.6.078l.751.145.676.139-.181.193c-.087.065-.009.142.223.221a3.794,3.794,0,0,1,.363.128c.413.171.518.335.306.475a8.054,8.054,0,0,1-1.63.562c-.722.168-1.13.373-1.73.554a10.48,10.48,0,0,1-1.1.224c-.81.147-1.7.288-2.508.438s-1.724.262-2.622.388c-1.333.153-2.77.288-4.3.4-.952.1-1.929.194-2.812.3-1.042.125-2.261.219-3.625.282-1.206.07-2.288.166-3.225.286a1.337,1.337,0,0,0-.233.047,3.65,3.65,0,0,1-1.353.239.885.885,0,0,0,.15.1c.092.039.107.076.045.107a1.259,1.259,0,0,1-.395.065,11.253,11.253,0,0,0-1.381.154.482.482,0,0,0-.239.071c-.027.029,0,.062.082.1s.073.068,0,.095a1.448,1.448,0,0,1-.387.055c-.474.039-.981.072-1.517.1-1.141.058-2.461.072-3.882.041-.15-.012-.306.011-.481,0-1-.041-1.938-.038-2.694.007-.883.024-1.8.031-2.733.048-1.342.01-2.583.051-3.689.122-1.25-.042-1.968.063-3.029.077-.98.021-1.912.055-2.784.1-1.406.066-2.805.125-4.192.2-1.3.042-2.5.109-3.574.2-.414.04-1.149-.007-1.437.07a9.315,9.315,0,0,1-1.308.1l-1.443.077c-.249.017-.521.029-.814.036-1.335.02-2.272.129-3.513.163l-.125-.01c-2.217.172-4.744.281-7.507.323-1.618.063-3.381.08-5.1.133-.416.071-1.37,0-1.89.066s-1.351.036-2.012.053-1.309.049-2.015.056a12.056,12.056,0,0,0-1.514.1c-.866.094-1.915.156-3.1.182-1.569.039-3.056.106-4.648.112.016.062-.088.115-.3.156a5.917,5.917,0,0,1-.909.074c-1.706.042-3.258.121-4.987.158l-.462.005-5.167.093c-1.392.022-2.733.048-4.153.072a7.9,7.9,0,0,0-.914.029.779.779,0,0,0-.4-.031l-.045.048-5.9.128c-2.312.072-4.74.112-7.264.122-.6.011-1.161.033-1.674.066q-.711.022-1.479.029-1.034-.007-2.02,0c-1.728.037-3.539.048-5.427.055s-3.323.047-5.005.064c-1.139.011-2.272.015-3.449.01-.562,0-1.25-.042-1.831-.053a3.868,3.868,0,0,0-.852.02,7.41,7.41,0,0,1-1.4.035c-.993,0-1.131-.026-1.378-.221l1.227-.076c.3-.024.678-.031,1.093-.022s.856.034,1.278.073c.166.017.34.03.513.038s.339.011.491.009c1.232-.024,2.449-.06,3.634-.092l.174-.014.032-.177c-.154-.016-.315-.028-.476-.037l-5.921-.049c-1.358-.013-2.765-.061-4.1-.072s-2.052-.019-3.085-.034c-.436-.01-.88-.025-1.328-.045a.109.109,0,0,0,.051-.055c.027-.029.063-.067-.125-.1a6.371,6.371,0,0,0-.771-.095c-.275-.012-.542-.018-.79-.017a35.957,35.957,0,0,1-3.8-.217l-.449.106c-1.874-.036-3.777-.071-5.735-.1-.392-.01-.8-.034-1.2-.069-.426-.033-.812-.108-1.26-.147s-.885-.046-1.316-.058a3.671,3.671,0,0,1,.466-.067,1.463,1.463,0,0,0,.388-.051c.068-.026.063-.058-.012-.092-.133-.059-.188-.115.118-.125a2.116,2.116,0,0,0,.591-.092c.1-.043.1-.1-.012-.152a.306.306,0,0,1-.1-.1h0l-.125-.01c-.4-.114-1.232-.148-1.818-.238-.279-.025-.569-.038-.825-.037-.659-.014-1.3-.016-1.983-.034-.325-.008-.665-.027-1-.054a1.345,1.345,0,0,1-.787-.192,4.989,4.989,0,0,0,.98-.076c.2-.047.244-.111.123-.182a5.541,5.541,0,0,0-2.3-.411q.792-.017,1.525-.05a1.312,1.312,0,0,0,.307-.037c.058-.019.065-.043.019-.068a1.033,1.033,0,0,0-.276-.076c-.134-.023-.3-.043-.473-.056-.843-.08-1.727-.13-2.552-.144-.7,0-1.326.01-2.141.019l-.952-.074c.018-.019-.12-.044-.083-.055.256-.1.537-.2.827-.307a8.893,8.893,0,0,1-1.085-.186c-.272-.069-.43-.141-.455-.207-.022-.02-.013-.038.025-.053a.759.759,0,0,1,.194-.036,3.031,3.031,0,0,0,.579-.078c.127-.036.178-.079.151-.127l-.727-.17c-2.236-.1-4.436-.169-6.559-.2l-1.917-.019c-.226-.045-.152-.067.066-.071s.831,0,1.258.005a9.331,9.331,0,0,0,.956-.028,1.49,1.49,0,0,0,.516-.108l-.621-.2c.036-.039.087-.093.437-.093a1.957,1.957,0,0,0,.507-.06c.089-.032.082-.073-.019-.115-.012-.032.015-.061.082-.087.518-.008,1.033-.012,1.5-.027a4.636,4.636,0,0,0,.546-.041.6.6,0,0,0,.268-.082c.021-.032-.016-.067-.108-.1a2.373,2.373,0,0,0-.42-.106,13.424,13.424,0,0,0-1.872.019,4.417,4.417,0,0,1-.767.061c-.33,0-.708-.008-1.084-.037a11.788,11.788,0,0,0-1.217-.033,2.392,2.392,0,0,0-.722.095c-.444-.014-.837-.024-1.225-.041-.457-.021-.891-.024-1.255-.008-.581.015-1.206.017-1.86.006-1.886-.023-3.776-.043-5.605-.042-.484,0-.9.019-1.383.013s-.861.029-1.452-.027c-.113-.009-.227-.014-.333-.015s-.2,0-.279.008c-1.058.062-2.293.082-3.632.061-1.838.011-3.743.007-5.584.022-.541.011-1.053.03-1.531.056-.363.017-.743.03-1.138.039-.3.007-.59,0-.547.068s-.4.03-.664.02c-.893-.024-1.8-.059-2.723-.106s-1.794-.078-2.615-.077a15.329,15.329,0,0,1-1.959-.06c.033-.035.066-.071.237-.109-.611-.094-1.31-.172-2.042-.229s-1.473-.091-2.164-.1l-.933-.18c-.233-.02-.471-.033-.7-.04s-.445-.006-.634,0a4.8,4.8,0,0,1-.5-.014,3.735,3.735,0,0,1-.454-.06c-.177-.031-.4-.058-.627-.076s-.466-.027-.675-.026c-.654-.013-1.349-.053-2.014-.116a.618.618,0,0,1-.3-.118c-.026-.038.027-.072.153-.1.2-.043.322-.1.346-.158s-.044-.127-.2-.2c-.08-.042-.1-.083-.07-.119a.55.55,0,0,1,.269-.093c.536-.113.4-.172-.433-.34-.136-.028-.3-.054-.483-.076s-.38-.04-.579-.052c-.468-.024-.93-.04-1.378-.049-.25-.02-.512,0-.8,0a5.807,5.807,0,0,1-2.112-.241l-.331-.105c-.628-.081-1.317-.147-2.018-.192s-1.4-.069-2.036-.07c-.255,0-.546-.01-.828-.034-.921-.073-1.857-.12-2.746-.139-.554-.01-1.148-.044-1.712-.1a13.988,13.988,0,0,1-1.464-.211,12.038,12.038,0,0,0-1.33-.186c-.6-.047-.65-.109-.3-.162s.92-.121,1.43-.178a.654.654,0,0,0,.324-.085c.034-.036-.011-.078-.13-.12a.139.139,0,0,1-.016-.211c.031-.028.016-.059-.046-.091a1.363,1.363,0,0,0-.312-.1c-.144-.031-.321-.061-.521-.085s-.417-.045-.637-.059c-.926-.072-1.828-.143-2.775-.193-.4-.024-.792-.055-1.177-.092-.785-.093-1.628-.168-2.48-.221a9.088,9.088,0,0,1-1.093-.123c-.938-.148-1.8-.306-2.569-.469a6.419,6.419,0,0,0-.714-.145c-.287-.044-.611-.083-.952-.113-.275-.022-.5-.073-.706-.107-.146-.082-.154-.159-.022-.224a2.534,2.534,0,0,1,.775-.148c.358-.038.694-.08,1-.125.373-.037.813-.062,1.306-.074a5.106,5.106,0,0,0,1.253-.161,37.989,37.989,0,0,0-4.472-.246l-1.047-.116.13-.138c.261-.078.351-.174.262-.279-.078-.051-.064-.1.038-.136a2.159,2.159,0,0,1,.545-.084c1.515-.154,3.26-.266,4.684-.437.444-.034.962-.053,1.531-.056.552-.015.537-.086-.087-.165q-.526-.062-1.072-.118c-1.623.011-2.309.226-4.155.189l-.827-.264c-.232,0-.457,0-.674,0l-3.12.146a3.065,3.065,0,0,0-.588.061c-.125.032-.166.072-.118.118.014.056-.034.108-.145.154-.072.032-.033.074.107.115.315.094-.106.112-.373.14-.068,0-.146,0-.229,0s-.171-.006-.257-.013-.169-.016-.245-.026-.142-.022-.195-.035c-.456-.087-.852-.18-1.3-.277.337-.1-.027-.257.491-.351.059-.018.084-.04.074-.064s-.055-.049-.132-.075c-.2-.066-.289-.132-.263-.19s.169-.108.414-.143l.033-.035c-.622-.111-.441-.217-.676-.339l-.6-.075a13.9,13.9,0,0,0-2.812-.154c-.255-.072.082-.087.334-.1l2.116-.107c1.384-.071,2.806-.125,4.346-.164s3.264-.127,4.861-.2a.907.907,0,0,0,.182-.025c.039-.011.053-.025.041-.041a2.149,2.149,0,0,0-.237-.045c-.094-.013-.2-.024-.309-.032-.5-.039-1.017-.062-1.551-.094l-1-.054-.3-.082a3.9,3.9,0,0,0-.589-.146c-.217-.025-.454-.044-.686-.053s-.451-.01-.633,0c-.505.023-.963.052-1.446.08s-.751.055-1.168.071q-1.27.022-2.455.067c-.668.058-1.287.125-1.854.2a7.9,7.9,0,0,1-1.273.038,4.515,4.515,0,0,1-.673-.112c-.156-.043-.22-.087-.18-.124a.631.631,0,0,1,.27-.068,4.87,4.87,0,0,1,.541-.023c.6-.012,1.152-.036,1.652-.071.7-.061,1.541-.094,2.482-.1.319,0,.536-.027.817-.04s.52-.039.83-.025a13.211,13.211,0,0,0,2.02-.09.731.731,0,0,0,.362-.1c.038-.041-.012-.088-.145-.135a9.273,9.273,0,0,0-.943-.284,7.081,7.081,0,0,0-.72-.125c-.283-.036-.594-.065-.91-.085-.183-.058-.278-.116-.275-.169s.1-.1.291-.133a8.264,8.264,0,0,1,1.95-.13c.493.01.958.008,1.377-.006.928-.024,1.993-.006,3.1.052.285.015.566.024.834.027,1.914.022,3.741.023,5.573.018.971,0,1.951-.016,2.962-.006,2.373.02,4.541-.028,6.836-.038,1.2-.006,2.281-.049,3.183-.127a4.511,4.511,0,0,0,.456-.085c-.583-.073-1.226-.129-1.868-.162s-1.261-.043-1.8-.028a10.531,10.531,0,0,1-1.1.024c-.423-.01-.87-.038-1.292-.08h0l1.247-.04c.827-.022,1.672-.035,2.477-.062,1.278-.045,2.466-.107,3.788-.142,1.068-.03,2.027-.087,2.848-.17.593-.06,1.267-.106,2.009-.136a2.13,2.13,0,0,0,.876-.131,3.814,3.814,0,0,0-.926-.072c-1.942-.023-3.794-.011-5.518.038-.869.012-1.642.051-2.284.114a7.713,7.713,0,0,1-.874.014c-1,0-1.958.013-2.861.042-1.25.045-2.637.053-4.108.024-.273-.052.048-.051.066-.071,1.147-.048,2.273-.1,3.442-.145.32-.014.661-.023,1.02-.027a21.124,21.124,0,0,0,3.209-.183,5.739,5.739,0,0,1,.744-.076.537.537,0,0,0,.219-.09,3.657,3.657,0,0,0-.926-.072q-1.183.027-2.276.077c-.676.032-1.422.046-2.218.044-.587,0-1.092.018-1.685.02-.321-.006-.652-.018-.988-.036a12.205,12.205,0,0,1,1.51-.12,4.139,4.139,0,0,0,1.132-.146,2.081,2.081,0,0,0-.651-.051c-.407,0-.8.013-1.179.025-.8.027-1.669.037-2.581.029-.481,0-.938.006-1.364.021-.964.025-1.89.066-2.772.09-1.806.035-3.459.105-5.2.152a10.773,10.773,0,0,1-1.239,0,1.965,1.965,0,0,1-.583-.066c-.137-.041-.176-.083-.107-.115a2.44,2.44,0,0,1,.56-.053c1.556-.064,3.034-.147,4.425-.247.61-.024,1.147-.064,1.591-.12.352-.039.768-.067,1.233-.083q1.018-.049,2.117-.079a7.773,7.773,0,0,0,.856-.065,1.223,1.223,0,0,0,.452-.126l-.876-.155-.416-.015-7.445.2-.736.011a5.514,5.514,0,0,1-1.742-.2,22.4,22.4,0,0,0,4.026-.423c-.2-.02-.415-.036-.626-.049-1.39-.033-2.707-.031-3.9.005-.708.01-1.436.012-2.166.017a9.108,9.108,0,0,1,1.576-.1c1.279-.047,2.414-.128,3.37-.24.33-.043.74-.073,1.211-.088a8.8,8.8,0,0,0,1.153-.082c.286-.045.454-.107.49-.179a.712.712,0,0,1,.306-.183,6.87,6.87,0,0,0-1.123-.2c-.476-.052-1-.082-1.462-.085-.993-.021-2.021-.062-3.057-.122-.516-.03-1.024-.045-1.491-.044-.411,0-.877-.019-1.324-.059a9.969,9.969,0,0,1-1.155-.162c-.408-.08-.789-.161-1.169-.243s-.821-.185-1.264-.285c-.4-.012-.79-.018-1.165-.019-.293.007-.632,0-.979-.022s-.685-.056-.977-.1h0c.18-.048.381-.091.595-.146a2.177,2.177,0,0,1-.581-.2c-.107-.068-.122-.132-.043-.189.048-.051-.251-.133-.35-.2-.131-.057-.15-.111-.056-.155a1.926,1.926,0,0,1,.585-.093,6.17,6.17,0,0,0,.864-.119c.071-.013.108-.031.109-.051s-.036-.042-.107-.064a2.1,2.1,0,0,0-.3-.062c-.124-.018-.266-.034-.413-.044-.451-.03-.9-.047-1.322-.052q-1.09-.013-2.089-.008c-.736,0-1.552-.029-2.363-.088a8.717,8.717,0,0,1-1.721-.227,13.274,13.274,0,0,0-1.349-.195,5.727,5.727,0,0,1,1.3-.178,7.681,7.681,0,0,0,.952-.082.91.91,0,0,0,.451-.153l-1.31-.237c-1.056-.107-1.658-.009-2.808-.044l1.2-.106c.025-.009.035-.02.03-.032-.093-.186-.273-.225-1.478-.315l-.676-.053-1.073-.06a1.02,1.02,0,0,1-.334-.113c-.05-.037-.033-.071.049-.1.164-.047.219-.106.16-.17-.1-.042-.1-.082-.011-.112a2.1,2.1,0,0,1,.518-.055.809.809,0,0,0,.322-.085,2.294,2.294,0,0,1,.534-.093c.243-.021.541-.032.873-.031.982-.007,1.906-.032,2.757-.074l-.15-.012c.879.019,1.7.013,2.435-.017s1.666-.028,2.443-.054a5.492,5.492,0,0,0,1.351-.122,9.515,9.515,0,0,1,1.64-.058c.363,0,.713,0,1.049,0a15.243,15.243,0,0,1,1.59.024c.173.011.344.016.5.015,1.477,0,2.95.006,4.408,0,.337-.009.731,0,1.134.023.169.011.335.014.475.01,2.308-.054,4.9-.01,7.165-.074.275-.012.578-.018.9-.016a13.414,13.414,0,0,0,1.806-.062,8.824,8.824,0,0,1,.9-.053c.352-.006.743,0,1.147.02.673.024,1.3.02,1.81-.01.994-.034,2.038-.055,3.123-.063.332,0,.626-.012.858-.036a1.564,1.564,0,0,0,.48-.1,2.913,2.913,0,0,0-.826-.065c-1.071,0-2.139-.012-3.191-.008-.94-.011-1.843-.008-2.7.01a12.951,12.951,0,0,1-1.462-.045,17.07,17.07,0,0,0-1.819-.066c-.4.006-.823.005-1.261,0-.279-.012-.565-.034-.826-.065-.1-.013-.217-.024-.333-.032s-.231-.012-.339-.013-.206,0-.288.008a.988.988,0,0,0-.187.027,12.7,12.7,0,0,1-2.1.06c-1.148-.152-2.027-.045-3.107-.126-.086-.005-.17-.008-.248-.008s-.149,0-.207.007c-2.117.079-4.572.06-6.79.1-.245.006-.527,0-.815-.019a44.009,44.009,0,0,0-5.109-.054c-.171.008-.364.01-.571.007-.948-.045-1.858-.057-2.655-.035-1.245.01-2.444.026-3.708.027a20.385,20.385,0,0,0-2.226.081,6.559,6.559,0,0,1-.7,0c-.164-.054-.306-.1-.476-.151a3.939,3.939,0,0,0-.67-.175c-.291-.055-.638-.105-1.017-.146-.651-.051-.707-.134-.243-.171,1.2-.116,2.7-.174,4.381-.171,1.411-.014,2.846-.026,4.276-.031.833,0,1.711.01,2.522,0,.273,0,.553.013.837.024.348.017.688.025,1,.023,1-.029,2.121-.026,3.3.009.432.006.847,0,1.239,0,.929-.023,1.934-.025,2.987,0,.655.011,1.291.013,1.9.007.215,0,.393-.018.6-.008,1.814.1,3.119,0,4.759.027.8,0,1.562,0,2.281-.025q2.1-.022,4.308-.008c1.942.021,3.749-.014,5.606-.017.367,0,.721,0,1.061-.014,1.654-.051,3.445-.064,5.331-.038.429,0,.815-.01,1.135-.036a3.638,3.638,0,0,0,.726-.114c.069-.034.032-.076-.1-.118-.227-.054-.484-.106-.767-.156l-10.5-.062q-.661-.007-1.289,0-1.844.018-3.79,0c-1.28-.01-2.507.008-3.749.014q-.549,0-1.124-.005c-2.587-.044-5.113-.061-7.56-.049-1.03.009-2.139-.012-3.188-.011s-2.485.013-3.73.022l-3.857.043c-.758.006-1.5.021-2.234.032a10.374,10.374,0,0,0-2.347-.362c-.4-.033-.815-.051-1.188-.051-1.185.031-2.661-.029-3.784-.006a13.168,13.168,0,0,0-1.673.093c-.364.046-.778.084-1.236.114-1.224-.185-1.318-.313-.374-.374.255-.014.605-.015.792-.042a3.422,3.422,0,0,1,.423-.03c.171,0,.364,0,.563.01.629.026,1.221.027,1.717,0,.468-.029,1.037-.034,1.654-.016a9.048,9.048,0,0,0,1.253-.047,9.617,9.617,0,0,1,1.332-.017c.112.008.223.012.325.012s.193,0,.265-.01c.664-.036,1.452-.041,2.3-.017,1.3.019,2.529.007,3.636-.036a16.355,16.355,0,0,0,1.684-.161,3.443,3.443,0,0,1,.526-.045c1.108,0,2.307.041,3.519.116.456.03.913.053,1.36.068.919.034,1.809.049,2.646.045,1.216-.013,2.48-.01,3.781.009.8.01,1.578.008,2.316-.005.758-.011,1.566-.005,2.4.015a18.443,18.443,0,0,0,2.13-.064,2.772,2.772,0,0,0,.446-.1,33.341,33.341,0,0,0-3.529-.134,11.421,11.421,0,0,1-1.15-.035l-.015.016a2.42,2.42,0,0,1-.357.011,4.243,4.243,0,0,1-.427-.034h0l.151-.16c.8,0,1.583-.011,2.337-.028.636-.019,1.485.078,2.04.032,1.066.038,1.756-.039,2.715-.029s2.009.064,2.968.073c.837,0,1.651,0,2.438-.02.272-.012.584-.013.918,0,.468.019.905.018,1.262,0a2.872,2.872,0,0,0,.754-.112c-.117-.047-.275-.108-.458-.17a10.059,10.059,0,0,1,1.527-.081l.9-.013a2.135,2.135,0,0,0,.513-.046c.091-.028.084-.066-.022-.105a9.275,9.275,0,0,0-3.005-.062l-1.653-.043Zm22.387.315-.125-.01Zm204.31,19.532-.033.035.036-.038.275.022.021-.022Zm-38.6-14.885c-.389-.034-.782-.065-1.177-.092-.1,0-.2,0-.284,0a1.115,1.115,0,0,0-.193.021c-.036.038.183.063.383.078.252.021.511.034.75.036a5.435,5.435,0,0,0,.608-.023l.23-.016ZM424.525,356.077c.258,0,.5,0,.73,0,1.007-.042,1.973-.1,3-.137,1.306-.087,2.8-.133,4.428-.136a11.544,11.544,0,0,0,1.558-.085,8.2,8.2,0,0,1,.86-.057l4.316-.131c.268-.02.5-.047.694-.08l-.776-.061a6.614,6.614,0,0,0-.789.038,5.672,5.672,0,0,1-1.019.055c-.441,0-.871,0-1.289,0-.789.011-1.585.028-2.378.042a9.945,9.945,0,0,1-2,.071l-.6.012q-2.96.118-5.653.3c-.346.021-.646.051-.89.089-.094.029-.127.064-.1.1l-.125-.01Zm86.579,9.481c.476,0,.971.012,1.478.029.39.019.771.029,1.128.03,2,0,4.086.036,6.222.1.279.01.548.014.8.01l1.759-.042c.555-.019.567-.031.184-.2-.331-.029-.665-.055-1-.078a2.907,2.907,0,0,0-.606-.013,15.17,15.17,0,0,1-2.047.033c-2.08-.018-4.222-.054-6.321-.08-.444-.007-.874-.008-1.286,0-.256,0-.49.008-.692.022a1.187,1.187,0,0,0-.146.012.14.14,0,0,0-.069.023c-.009.009,0,.019.02.03a.49.49,0,0,0,.1.031c.168.036.362.069.578.1ZM529.256,340.9l2.056-.043c.246,0,.458-.03.72-.023,1.4.015,2.705-.008,3.853-.068.391-.024.847-.032,1.341-.026,1.515.018,2.948,0,4.26-.043.846-.016,1.64-.046,2.37-.091a.215.215,0,0,0,.106-.035c.013-.014,0-.029-.031-.045a.15.15,0,0,0-.069-.032,1.25,1.25,0,0,0-.148-.031c-.06-.009-.129-.017-.2-.023s-.146-.01-.216-.012c-.91-.039-1.778-.047-2.532-.022-.7.027-1.451.041-2.243.042-.758.006-1.281.076-2.212.037a7.4,7.4,0,0,0-.992.026,15.155,15.155,0,0,1-1.935.028c-.451-.014-.883-.018-1.28-.01-.964.025-1.887.063-2.781.1-.282.009-.583.014-.9.012l-4.458,0c-1.071,0-2.139-.012-3.191-.008-.859-.007-1.661.007-2.377.042-.764.037-1.595.057-2.477.062-1.373.031-2.736.052-4.228.066q-1.428.018-2.918.017a7.441,7.441,0,0,0-1.2.051,6.064,6.064,0,0,1-.868.008c-1.7-.056-3.291-.056-4.676,0-.177.009-.371.013-.577.013-1.329.013-2.706.02-3.982.034-.336.007-.654.019-.948.036a.69.69,0,0,0,.241.066,3.991,3.991,0,0,0,.437.042c1.2.05,2.361.071,3.436.062,1.79-.028,3.663-.03,5.6-.007,1.5.028,2.874,0,4.018-.072a29.149,29.149,0,0,1,3.266.014c.52.032,1.027.042,1.453.027.41-.017.878-.019,1.377-.006,1.052.024,2.066.029,3.022.016.936-.023,1.811-.069,2.772-.09s2.422-.031,3.607-.063S528.1,340.9,529.256,340.9Zm-84.872-.919a1.911,1.911,0,0,0,.883.176,39.429,39.429,0,0,0,3.968.1,19.454,19.454,0,0,1,2.326.013,23.093,23.093,0,0,0,2.688,0,1.983,1.983,0,0,0,.4-.052l.057-.061c-.074-.015-.164-.029-.265-.041s-.21-.02-.317-.025l-4.7-.06-.819-.016c-1.493-.048-2.919-.058-4.219-.03Zm9.088,1.454a6.239,6.239,0,0,0,1.092.182c1.8.132,3.608.195,5.207.179a7.348,7.348,0,0,0,.885-.055.436.436,0,0,0,.207-.037c.017-.019-.023-.041-.113-.062l-.572-.107c-1.057-.037-2.1-.065-3.121-.082-1.19-.021-2.248-.01-3.484-.01ZM511.1,364.848a4.593,4.593,0,0,0,1.8.254c.795.032,1.568.047,2.3.045.89,0,1.8,0,2.688,0a3.167,3.167,0,0,0,.517-.022c.117-.019.158-.047.116-.08a3.13,3.13,0,0,0-.505-.093c-.215-.026-.455-.042-.679-.048h-.484c-.587,0-1.2-.014-1.764-.01-.37.013-.8.011-1.246-.007s-.91-.05-1.345-.1ZM457.282,340.13c.179.036.381.071.6.1a25.167,25.167,0,0,0,2.573.122c.375,0,.72-.023,1.1,0,.681.033,1.342.047,1.949.042l.227-.013.133-.141c-.284-.029-.58-.052-.876-.068-1-.026-1.977-.041-2.955-.059s-1.318-.027-1.958-.032C457.79,340.1,457.523,340.11,457.282,340.13Zm-23.726,17.634,1.276.272a10.489,10.489,0,0,0,1.126,0,1.485,1.485,0,0,0,.59-.111c.111-.025.126-.061.042-.1a2.048,2.048,0,0,0-.492-.108c-.222-.037-.477-.069-.748-.1s-.554-.045-.83-.056Zm11.076-1.546c-.851-.039-1.668-.05-2.389-.032a13.866,13.866,0,0,1-1.714-.006,26.163,26.163,0,0,0-3.167-.034s-.036.038-.183.051a3.668,3.668,0,0,0,.551.043c.925.017,1.855.028,2.661.029.5-.006,1.029,0,1.577.009.753.02,1.469.021,2.12,0a4.848,4.848,0,0,0,.541-.061ZM537.9,340.289c-.4-.049-.842-.088-1.283-.114s-.874-.037-1.266-.034a3.909,3.909,0,0,0-.695.048c-.151.031-.2.073-.136.121l.926.072C536.231,340.373,536.908,340.34,537.9,340.289Zm76.078,3.7c-.323-.04-.681-.069-1.033-.084s-.683-.016-.956,0c-.14.006-.051.055-.078.083-.016.007-.017.015,0,.023a.32.32,0,0,0,.086.026c.042.008.094.015.151.021s.117.009.173.01c.354.015.69.017.977.005a3.975,3.975,0,0,0,.669-.07Zm5.06.564a1.128,1.128,0,0,0-.3-.072,4.766,4.766,0,0,0-.482-.044c-.3,0-.572.012-.808.03-.256.015-.081.087.257.127.144.016.3.028.449.035s.3.009.426.006a2.355,2.355,0,0,0,.313-.025c.078-.013.123-.03.133-.05Zm-148.458-4.3c-.755-.083-1.347-.054-1.991-.083s-.8-.032-.723.026a4.06,4.06,0,0,0,.8.063c.372.028.748.043,1.086.042a6.121,6.121,0,0,0,.827-.048Zm157.764,13.724c-.4-.016-.8-.026-1.181-.03a.2.2,0,0,0-.1.034c-.012.013,0,.028.024.043,0,0,.254.044.4.056a1.555,1.555,0,0,0,.849-.1Zm56.329,7.895c.267.059.39.1.607.127.1.009.2.016.3.018s.193,0,.272,0c.1-.019.125-.046.072-.077a3.475,3.475,0,0,0-.379-.054c-.3-.01-.6-.014-.875-.013Zm-227.067-22a7.338,7.338,0,0,0-1.537-.024A9.587,9.587,0,0,0,457.6,339.876Zm9.356.483a4.883,4.883,0,0,0-1.2-.094.3.3,0,0,0-.115.021c-.015.01,0,.022.035.034a1.008,1.008,0,0,0,.171.033c.074.009.157.016.238.019.306,0,.6-.005.874-.014Zm30.238-.288c.015-.016.033-.035-.117-.047-.039-.006-.085-.012-.133-.016s-.1-.006-.142-.006l-.03.032Zm17.9,26.164-.34.018.15.012.4,0ZM636.542,344.11a.683.683,0,0,0-.271,0,.1.1,0,0,0-.05.015c-.006.006,0,.013.017.02l.25.02Zm-19.723.4c-.083,0-.158,0-.221.007l-.018.019.25.02ZM444.584,350.95c-.1-.01-.2-.019-.3-.023l-.125-.01a1.863,1.863,0,0,0,.207.037C444.44,350.96,444.5,350.951,444.584,350.95Z" transform="translate(-0.346 0.593)" fill="#df6951"/>
  </g>
</svg>
