<svg width="70" height="70" viewBox="0 0 70 70" fill="none" xmlns="http://www.w3.org/2000/svg">
<path d="M35 0C15.6701 0 0 15.6701 0 35C0 54.3299 15.6701 70 35 70C54.3299 70 70 54.3299 70 35C70 15.6701 54.3299 0 35 0ZM35 7.60498C50.1299 7.60498 62.3908 19.8739 62.3908 35C62.3908 50.1261 50.1299 62.3908 35 62.3908C19.8701 62.3908 7.60923 50.1261 7.60923 35C7.60929 19.8739 19.8701 7.60498 35 7.60498ZM48.4112 18.3801L28.1256 38.67L21.546 32.0905L15.0903 38.5419L21.6699 45.1215L28.1683 51.6199L34.6198 45.1642L54.9096 24.8785L48.4112 18.3801Z" fill="#1EBA24"/>
</svg>
