<svg width="80" height="80" viewBox="0 0 80 80" fill="none" xmlns="http://www.w3.org/2000/svg">
<path d="M43.3333 70H12C11.4696 70 10.9609 69.7893 10.5858 69.4142C10.2107 69.0391 10 68.5304 10 68V12C10 11.4696 10.2107 10.9609 10.5858 10.5858C10.9609 10.2107 11.4696 10 12 10H68C68.5304 10 69.0391 10.2107 69.4142 10.5858C69.7893 10.9609 70 11.4696 70 12V43.3333" stroke="#9E9E9E" stroke-width="1.5" stroke-linecap="round" stroke-linejoin="round"/>
<path d="M10 53.334L33.3333 43.334L51.6667 51.6673" stroke="#9E9E9E" stroke-width="1.5" stroke-linecap="round" stroke-linejoin="round"/>
<path d="M53.3332 33.3333C51.5651 33.3333 49.8694 32.631 48.6192 31.3807C47.3689 30.1305 46.6666 28.4348 46.6666 26.6667C46.6666 24.8986 47.3689 23.2029 48.6192 21.9526C49.8694 20.7024 51.5651 20 53.3332 20C55.1013 20 56.797 20.7024 58.0473 21.9526C59.2975 23.2029 59.9999 24.8986 59.9999 26.6667C59.9999 28.4348 59.2975 30.1305 58.0473 31.3807C56.797 32.631 55.1013 33.3333 53.3332 33.3333V33.3333Z" stroke="#9E9E9E" stroke-width="1.5" stroke-linecap="round" stroke-linejoin="round"/>
<path d="M63.3334 63.334V73.334M53.3334 63.334H63.3334H53.3334ZM73.3334 63.334H63.3334H73.3334ZM63.3334 63.334V53.334V63.334Z" stroke="#9E9E9E" stroke-width="1.5" stroke-linecap="round" stroke-linejoin="round"/>
</svg>
