<svg width="44" height="44" viewBox="0 0 44 44" fill="none" xmlns="http://www.w3.org/2000/svg">
<path d="M22 1C10.4017 1 1 10.4017 1 22C1 33.5983 10.4017 43 22 43C33.5983 43 43 33.5983 43 22C43 10.4017 33.5983 1 22 1Z" stroke="#9E9E9E" stroke-width="1.5" stroke-linecap="round" stroke-linejoin="round"/>
<path d="M5.76953 35.3262C5.76953 35.3262 10.4504 29.3496 22.0004 29.3496C33.5504 29.3496 38.2334 35.3262 38.2334 35.3262" stroke="#9E9E9E" stroke-width="1.5" stroke-linecap="round" stroke-linejoin="round"/>
<path d="M22.0012 22.0003C23.672 22.0003 25.2745 21.3366 26.456 20.1551C27.6374 18.9736 28.3012 17.3712 28.3012 15.7004C28.3012 14.0295 27.6374 12.4271 26.456 11.2456C25.2745 10.0641 23.672 9.40039 22.0012 9.40039C20.3303 9.40039 18.7279 10.0641 17.5464 11.2456C16.3649 12.4271 15.7012 14.0295 15.7012 15.7004C15.7012 17.3712 16.3649 18.9736 17.5464 20.1551C18.7279 21.3366 20.3303 22.0003 22.0012 22.0003V22.0003Z" stroke="#9E9E9E" stroke-width="1.5" stroke-linecap="round" stroke-linejoin="round"/>
</svg>
