<svg id="chat" xmlns="http://www.w3.org/2000/svg" width="22.653" height="23.069" viewBox="0 0 22.653 23.069">
  <g id="Group_10386" data-name="Group 10386">
    <path id="Path_5933" data-name="Path 5933" d="M14.745,0h-.037A11.317,11.317,0,0,0,5.832,18.37l-1.65,3.838a.615.615,0,0,0,.321.81.628.628,0,0,0,.352.043L10.907,22a10.9,10.9,0,0,0,3.77.655A11.327,11.327,0,0,0,14.745,0ZM10.864,9.061H14.2a.618.618,0,1,1,0,1.236H10.864a.618.618,0,1,1,0-1.236Zm7.664,4.327H10.864a.618.618,0,1,1,0-1.236h7.664a.618.618,0,0,1,0,1.236Z" transform="translate(-3.366)" fill="#fff"/>
  </g>
</svg>
