<svg id="dribbble" xmlns="http://www.w3.org/2000/svg" width="28.612" height="28.612" viewBox="0 0 28.612 28.612">
  <path id="Path_5899" data-name="Path 5899" d="M14.306,0A14.306,14.306,0,1,1,0,14.306,14.324,14.324,0,0,1,14.306,0Z" fill="#c2185b"/>
  <g id="Group_10298" data-name="Group 10298" transform="translate(2.06 2.043)">
    <path id="Path_5900" data-name="Path 5900" d="M28.888,6.035h0A12.245,12.245,0,0,0,18.559,3.471a58.015,58.015,0,0,1,4.028,6.58A28.9,28.9,0,0,0,28.888,6.035Z" transform="translate(-8.818 -3.213)" fill="#ec407a"/>
    <path id="Path_5901" data-name="Path 5901" d="M27.782,17.717h0a22.851,22.851,0,0,1,8.338-.144,12.193,12.193,0,0,0-2.964-7.651,31.084,31.084,0,0,1-6.874,4.39q.808,1.679,1.5,3.407Z" transform="translate(-11.631 -5.656)" fill="#ec407a"/>
    <path id="Path_5902" data-name="Path 5902" d="M15.278,11.33A56.06,56.06,0,0,0,11.1,4.605a12.275,12.275,0,0,0-7.381,8.613A28.924,28.924,0,0,0,15.278,11.33Z" transform="translate(-3.416 -3.72)" fill="#ec407a"/>
    <path id="Path_5903" data-name="Path 5903" d="M17.4,21.2q-.64-1.575-1.382-3.108A30.185,30.185,0,0,1,3.26,20.163a12.118,12.118,0,0,0,2.853,8.631A22.989,22.989,0,0,1,17.4,21.2Z" transform="translate(-3.239 -8.632)" fill="#ec407a"/>
    <path id="Path_5904" data-name="Path 5904" d="M29.822,25.021h0a58.073,58.073,0,0,1,2.3,8.361,12.245,12.245,0,0,0,5.176-8.4,20.833,20.833,0,0,0-7.476.033Z" transform="translate(-12.92 -11.026)" fill="#ec407a"/>
    <path id="Path_5905" data-name="Path 5905" d="M10.039,33.116h0a12.2,12.2,0,0,0,13,1.8,55.584,55.584,0,0,0-2.434-8.942,20.934,20.934,0,0,0-10.57,7.146Z" transform="translate(-5.715 -11.501)" fill="#ec407a"/>
  </g>
</svg>
