<svg xmlns="http://www.w3.org/2000/svg" width="23.548" height="17.348" viewBox="0 0 23.548 17.348">
  <g id="email" transform="translate(0 -57.088)">
    <g id="Group_10149" data-name="Group 10149" transform="translate(0 61.981)">
      <g id="Group_10148" data-name="Group 10148" transform="translate(0 0)">
        <path id="Path_5867" data-name="Path 5867" d="M12.455,153.956a1.339,1.339,0,0,1-1.39,0L0,147.2v8.98a3.476,3.476,0,0,0,3.475,3.475h16.6a3.476,3.476,0,0,0,3.475-3.475V147.2Z" transform="translate(0 -147.2)" fill="#fff"/>
      </g>
    </g>
    <g id="Group_10151" data-name="Group 10151" transform="translate(0.111 57.088)">
      <g id="Group_10150" data-name="Group 10150" transform="translate(0 0)">
        <path id="Path_5868" data-name="Path 5868" d="M22.009,57.088H5.412a3.455,3.455,0,0,0-3.364,2.725L13.725,66.93l11.649-7.117A3.455,3.455,0,0,0,22.009,57.088Z" transform="translate(-2.048 -57.088)" fill="#fff"/>
      </g>
    </g>
  </g>
</svg>
