<svg xmlns="http://www.w3.org/2000/svg" width="28.612" height="28.612" viewBox="0 0 28.612 28.612">
  <path id="github" d="M14.306.5A14.489,14.489,0,0,0,0,15.169,14.639,14.639,0,0,0,9.782,29.087c.715.138.978-.316.978-.705,0-.348-.012-1.271-.018-2.494-3.979.884-4.819-1.968-4.819-1.968a3.866,3.866,0,0,0-1.592-2.146c-1.3-.909.1-.891.1-.891a3.007,3.007,0,0,1,2.191,1.511,3.007,3.007,0,0,0,4.167,1.22,3.156,3.156,0,0,1,.906-1.962c-3.177-.367-6.516-1.628-6.516-7.249a5.739,5.739,0,0,1,1.472-3.936,5.339,5.339,0,0,1,.125-3.882s1.2-.393,3.934,1.5a13.165,13.165,0,0,1,7.153,0c2.718-1.9,3.916-1.5,3.916-1.5a5.487,5.487,0,0,1,.143,3.882A5.763,5.763,0,0,1,23.389,14.4c0,5.635-3.344,6.876-6.527,7.236a3.561,3.561,0,0,1,.966,2.714c0,1.963-.018,3.54-.018,4.017,0,.384.25.843.984.7a14.591,14.591,0,0,0,9.819-13.9A14.492,14.492,0,0,0,14.306.5Z" transform="translate(0 -0.5)" fill="#212121"/>
</svg>
