<svg xmlns="http://www.w3.org/2000/svg" width="21.75" height="21.75" viewBox="0 0 21.75 21.75">
  <g id="global" transform="translate(-0.016 0.002)" opacity="0.5">
    <g id="Group_10317" data-name="Group 10317" transform="translate(0.016 -0.002)">
      <path id="Path_5909" data-name="Path 5909" d="M19.756,4.6a.182.182,0,0,0,0-.021c-.027-.039-.061-.072-.089-.11q-.3-.415-.645-.8c-.062-.07-.124-.139-.188-.207q-.35-.375-.735-.716c-.047-.042-.092-.085-.139-.127A10.891,10.891,0,0,0,15.9,1.224c-.03-.016-.061-.029-.091-.044a10.807,10.807,0,0,0-1.01-.45C14.717.7,14.646.675,14.573.652q-.459-.165-.932-.29c-.093-.025-.186-.05-.281-.072-.311-.072-.622-.127-.939-.173-.1-.014-.191-.033-.288-.044a10.216,10.216,0,0,0-2.465,0c-.1.012-.192.03-.288.044-.318.045-.632.1-.939.173-.095.022-.188.047-.281.072q-.476.124-.932.29L7,.729a10.8,10.8,0,0,0-1.01.45c-.03.016-.061.029-.091.044A10.894,10.894,0,0,0,3.832,2.616c-.047.041-.092.085-.139.127a10.107,10.107,0,0,0-.735.716c-.064.068-.126.138-.188.207q-.341.383-.645.8c-.028.038-.061.071-.089.11a.176.176,0,0,0-.009.021,10.807,10.807,0,0,0,0,12.555.17.17,0,0,0,.009.021c.027.039.061.072.089.11q.3.415.645.8c.062.07.124.139.188.207q.351.375.735.716c.047.042.092.085.139.127a10.891,10.891,0,0,0,2.062,1.392c.03.016.061.029.091.044a10.807,10.807,0,0,0,1.01.45c.078.028.148.054.222.078q.459.165.932.29c.093.025.186.05.281.072.311.072.622.127.939.173.1.014.191.033.288.044a10.217,10.217,0,0,0,2.465,0c.1-.012.192-.03.288-.044.318-.045.632-.1.939-.173.095-.022.188-.047.281-.072q.477-.124.932-.29l.222-.078a10.8,10.8,0,0,0,1.01-.45c.03-.016.061-.029.091-.044a10.893,10.893,0,0,0,2.062-1.392c.047-.041.092-.085.139-.127a9.892,9.892,0,0,0,.735-.716c.064-.068.126-.138.188-.207q.341-.384.645-.8c.028-.038.061-.071.089-.11a.176.176,0,0,0,.009-.021A10.807,10.807,0,0,0,19.756,4.6Zm-.887,1.47a9.245,9.245,0,0,1,1.311,4.03H15.526a14.5,14.5,0,0,0-.435-2.742A13.964,13.964,0,0,0,18.87,6.066Zm-6-4.3c.044.01.085.024.129.034a8.363,8.363,0,0,1,.824.233c.041.014.082.03.122.045q.4.14.789.311l.134.065q.371.176.724.382l.155.094q.336.205.653.439c.054.04.109.078.162.121a7.09,7.09,0,0,1,.6.5c.05.045.1.089.15.136.2.189.389.388.572.6.023.027.048.052.071.078a13.035,13.035,0,0,1-3.314,1.064A19.757,19.757,0,0,0,12.548,1.71C12.655,1.73,12.766,1.74,12.872,1.764ZM7.815,10.1A12.964,12.964,0,0,1,8.243,7.61a22.268,22.268,0,0,0,2.653.155,22.319,22.319,0,0,0,2.655-.159,12.94,12.94,0,0,1,.425,2.49Zm6.161,1.554a12.964,12.964,0,0,1-.427,2.486,22.744,22.744,0,0,0-5.308,0,12.943,12.943,0,0,1-.425-2.486ZM10.9,2.056A18.766,18.766,0,0,1,13.061,6.1a20.568,20.568,0,0,1-2.166.115A20.724,20.724,0,0,1,8.732,6.1,18.914,18.914,0,0,1,10.9,2.056ZM3.91,4.718c.183-.207.373-.406.572-.6.049-.047.1-.091.15-.136q.288-.262.6-.5c.054-.041.108-.078.162-.121q.317-.233.653-.439L6.2,2.833q.354-.207.724-.382l.134-.065q.387-.175.789-.311c.04-.015.078-.031.122-.045.27-.09.544-.165.824-.233.044-.01.085-.024.13-.033.106-.023.217-.034.325-.054A19.758,19.758,0,0,0,7.152,5.862,13.035,13.035,0,0,1,3.838,4.8C3.861,4.77,3.886,4.745,3.91,4.718ZM2.921,6.066A13.962,13.962,0,0,0,6.7,7.354,14.5,14.5,0,0,0,6.265,10.1H1.61A9.246,9.246,0,0,1,2.921,6.066Zm0,9.615A9.245,9.245,0,0,1,1.61,11.65H6.265A14.5,14.5,0,0,0,6.7,14.392,13.961,13.961,0,0,0,2.921,15.681Zm6,4.3c-.044-.01-.085-.024-.129-.034a8.363,8.363,0,0,1-.824-.233c-.041-.014-.082-.03-.122-.045q-.4-.14-.789-.311l-.134-.065q-.371-.176-.724-.382l-.155-.094q-.336-.205-.653-.439c-.054-.04-.109-.078-.162-.121a7.09,7.09,0,0,1-.6-.5c-.05-.045-.1-.089-.15-.136-.2-.189-.389-.388-.572-.6-.023-.027-.048-.052-.071-.078a13.035,13.035,0,0,1,3.314-1.064,19.757,19.757,0,0,0,2.092,4.151C9.135,20.017,9.025,20.006,8.919,19.983Zm1.977-.292A18.766,18.766,0,0,1,8.73,15.65a20.231,20.231,0,0,1,4.33,0h0A18.91,18.91,0,0,1,10.9,19.691Zm6.986-2.662c-.183.207-.373.406-.572.6-.049.047-.1.091-.15.136q-.288.263-.6.5c-.054.041-.108.082-.162.121q-.317.233-.653.439l-.155.094q-.353.206-.724.382l-.134.065q-.387.175-.789.311c-.04.015-.078.031-.122.045-.27.09-.544.165-.824.233-.044.01-.085.024-.13.033-.106.023-.217.034-.325.054a19.755,19.755,0,0,0,2.092-4.151,13.034,13.034,0,0,1,3.314,1.064C17.929,16.977,17.9,17,17.881,17.029Zm.988-1.348a13.962,13.962,0,0,0-3.778-1.288,14.5,14.5,0,0,0,.434-2.742h4.655A9.247,9.247,0,0,1,18.87,15.681Z" transform="translate(-0.016 0.002)" fill="#abafc7"/>
    </g>
  </g>
</svg>
