<svg id="Group_888" data-name="Group 888" xmlns="http://www.w3.org/2000/svg" width="14.903" height="14.958" viewBox="0 0 14.903 14.958">
  <path id="Path_8" data-name="Path 8" d="M20.972,13.4c.991.035,2.018.035,3.01.071a5.067,5.067,0,0,1,2.479.637,3.757,3.757,0,0,1,1.806,2.62,20.087,20.087,0,0,1,.177,2.054c.035,1.487,0,2.974,0,4.461a7.207,7.207,0,0,1-.283,2.3,3.751,3.751,0,0,1-3.01,2.62,13.4,13.4,0,0,1-2.054.177c-1.487.035-2.939,0-4.426,0a7.207,7.207,0,0,1-2.3-.283,3.751,3.751,0,0,1-2.62-3.01A13.4,13.4,0,0,1,13.571,23c-.035-1.487,0-2.974,0-4.461a7.207,7.207,0,0,1,.283-2.3,3.751,3.751,0,0,1,3.01-2.62,13.4,13.4,0,0,1,2.054-.177c.673-.035,1.346-.035,2.054-.035ZM27.1,20.73h0c-.035-.6-.035-1.168-.035-1.77a13.69,13.69,0,0,0-.106-1.7,2.531,2.531,0,0,0-2.125-2.372,9.351,9.351,0,0,0-1.983-.142c-1.275-.035-2.514-.035-3.789,0a10.891,10.891,0,0,0-1.877.142,2.5,2.5,0,0,0-2.124,1.841,5.547,5.547,0,0,0-.177,1.062c-.035,1.346-.035,2.691-.035,4.037,0,.85.035,1.735.106,2.585a2.469,2.469,0,0,0,2.16,2.372,12.162,12.162,0,0,0,1.983.142c1.239.035,2.479,0,3.753,0a13.69,13.69,0,0,0,1.7-.106A2.476,2.476,0,0,0,26,26.253a2.717,2.717,0,0,0,.991-2.16C27.062,23.031,27.062,21.9,27.1,20.73Z" transform="translate(-13.556 -13.4)" fill="#fff"/>
  <path id="Path_9" data-name="Path 9" d="M31.348,27.524A3.824,3.824,0,1,1,27.56,23.7,3.808,3.808,0,0,1,31.348,27.524ZM27.524,30a2.479,2.479,0,1,0-2.479-2.479A2.463,2.463,0,0,0,27.524,30Z" transform="translate(-20.108 -20.053)" fill="#fff"/>
  <path id="Path_10" data-name="Path 10" d="M44.967,21.585a.907.907,0,0,1-.885.921.9.9,0,1,1,.885-.921Z" transform="translate(-32.7 -18.115)" fill="#fff"/>
</svg>
