<svg id="linkedin" xmlns="http://www.w3.org/2000/svg" width="28.612" height="28.612" viewBox="0 0 28.612 28.612">
  <path id="Path_5896" data-name="Path 5896" d="M39.707,38.518h.007V28.023c0-5.133-1.105-9.088-7.107-9.088A6.23,6.23,0,0,0,27,22.019h-.083v-2.6h-5.69v19.1h5.925V29.058c0-2.49.472-4.9,3.556-4.9,3.039,0,3.084,2.842,3.084,5.058v9.3Z" transform="translate(-11.102 -9.905)" fill="#0077b5"/>
  <path id="Path_5897" data-name="Path 5897" d="M.99,19.942H6.922v19.1H.99Z" transform="translate(-0.518 -10.433)" fill="#0077b5"/>
  <path id="Path_5898" data-name="Path 5898" d="M3.436,0A3.452,3.452,0,1,0,6.872,3.436,3.437,3.437,0,0,0,3.436,0Z" fill="#0077b5"/>
</svg>
