<svg xmlns="http://www.w3.org/2000/svg" width="26.589" height="18.283" viewBox="0 0 26.589 18.283">
  <g id="list-text" transform="translate(-0.001 -80)">
    <g id="Group_10375" data-name="Group 10375" transform="translate(4.994 80)">
      <g id="Group_10374" data-name="Group 10374" transform="translate(0 0)">
        <path id="Path_5927" data-name="Path 5927" d="M114.454,80H97.841a1.661,1.661,0,0,0,0,3.322h16.612a1.661,1.661,0,1,0,0-3.322Z" transform="translate(-96.18 -80)" fill="#fff"/>
      </g>
    </g>
    <g id="Group_10377" data-name="Group 10377" transform="translate(0.001 80.007)">
      <g id="Group_10376" data-name="Group 10376" transform="translate(0 0)">
        <path id="Path_5928" data-name="Path 5928" d="M3.333,81.789a1.661,1.661,0,0,0-3.322,0,1.414,1.414,0,0,0,0,.324,1.5,1.5,0,0,0,.091.316,1.928,1.928,0,0,0,.158.282,1.52,1.52,0,0,0,.208.257,1.47,1.47,0,0,0,.249.2A1.354,1.354,0,0,0,1,83.326a1.371,1.371,0,0,0,.349.125,1.457,1.457,0,0,0,.324,0,1.661,1.661,0,0,0,1.171-.482,1.52,1.52,0,0,0,.208-.257,1.928,1.928,0,0,0,.158-.282,1.543,1.543,0,0,0,.125-.316A1.414,1.414,0,0,0,3.333,81.789Z" transform="translate(-0.001 -80.135)" fill="#fff"/>
      </g>
    </g>
    <g id="Group_10379" data-name="Group 10379" transform="translate(0.01 87.483)">
      <g id="Group_10378" data-name="Group 10378" transform="translate(0 0)">
        <path id="Path_5929" data-name="Path 5929" d="M3.5,225.789a1.42,1.42,0,0,0,0-.324,1.346,1.346,0,0,0-.125-.307,1.661,1.661,0,0,0-.158-.291,1.2,1.2,0,0,0-.208-.249A1.661,1.661,0,0,0,.18,225.789a1.657,1.657,0,0,0,.274.922,1.6,1.6,0,0,0,.216.249,1.213,1.213,0,0,0,.249.208,1.347,1.347,0,0,0,.282.158,1.413,1.413,0,0,0,.316.091,1.378,1.378,0,0,0,.324.033,1.413,1.413,0,0,0,.324,0,1.348,1.348,0,0,0,.307-.091,1.387,1.387,0,0,0,.291-.158,1.213,1.213,0,0,0,.249-.208,1.213,1.213,0,0,0,.208-.249,1.336,1.336,0,0,0,.158-.282,1.405,1.405,0,0,0,.125-.349A1.374,1.374,0,0,0,3.5,225.789Z" transform="translate(-0.18 -224.135)" fill="#fff"/>
      </g>
    </g>
    <g id="Group_10381" data-name="Group 10381" transform="translate(0.01 94.958)">
      <g id="Group_10380" data-name="Group 10380" transform="translate(0 0)">
        <path id="Path_5930" data-name="Path 5930" d="M3.5,369.789a1.426,1.426,0,0,0,0-.324,1.414,1.414,0,0,0-.125-.316,1.927,1.927,0,0,0-.158-.282,1.213,1.213,0,0,0-.208-.249,1.661,1.661,0,0,0-2.342,0,1.213,1.213,0,0,0-.208.249,1.927,1.927,0,0,0-.158.282,1.361,1.361,0,0,0-.091.316,1.427,1.427,0,0,0-.033.324,1.662,1.662,0,0,0,.49,1.171,1.213,1.213,0,0,0,.249.208,1.347,1.347,0,0,0,.282.158,1.414,1.414,0,0,0,.316.091,1.38,1.38,0,0,0,.324.033,1.413,1.413,0,0,0,.324,0,1.347,1.347,0,0,0,.307-.091,1.388,1.388,0,0,0,.291-.158,1.213,1.213,0,0,0,.249-.208,1.212,1.212,0,0,0,.208-.249,1.329,1.329,0,0,0,.158-.282,1.409,1.409,0,0,0,.125-.349A1.374,1.374,0,0,0,3.5,369.789Z" transform="translate(-0.178 -368.135)" fill="#fff"/>
      </g>
    </g>
    <g id="Group_10383" data-name="Group 10383" transform="translate(4.994 87.476)">
      <g id="Group_10382" data-name="Group 10382">
        <path id="Path_5931" data-name="Path 5931" d="M116.115,224H97.841a1.661,1.661,0,0,0,0,3.322h18.274a1.661,1.661,0,0,0,0-3.322Z" transform="translate(-96.18 -224)" fill="#fff"/>
      </g>
    </g>
    <g id="Group_10385" data-name="Group 10385" transform="translate(4.994 94.951)">
      <g id="Group_10384" data-name="Group 10384" transform="translate(0 0)">
        <path id="Path_5932" data-name="Path 5932" d="M108.639,368h-10.8a1.661,1.661,0,1,0,0,3.322h10.8a1.661,1.661,0,1,0,0-3.322Z" transform="translate(-96.18 -368)" fill="#fff"/>
      </g>
    </g>
  </g>
</svg>
