<svg xmlns="http://www.w3.org/2000/svg" width="21.832" height="31.75" viewBox="0 0 21.832 31.75">
  <g id="pin" transform="translate(-79.968 0)">
    <path id="Path_5866" data-name="Path 5866" d="M100.284,5.437A10.775,10.775,0,0,0,91.128,0c-.162,0-.326,0-.489,0a10.775,10.775,0,0,0-9.156,5.435,11.053,11.053,0,0,0-.144,10.922l7.873,14.411.011.019a1.914,1.914,0,0,0,3.32,0l.011-.019,7.873-14.411a11.054,11.054,0,0,0-.144-10.922Zm-9.4,8.95a4.465,4.465,0,1,1,4.465-4.465A4.47,4.47,0,0,1,90.884,14.386Z" transform="translate(0)" fill="#044982"/>
  </g>
</svg>
