<svg xmlns="http://www.w3.org/2000/svg" width="12.607" height="18.334" viewBox="0 0 12.607 18.334">
  <g id="pin" transform="translate(-79.968 0)" opacity="0.5">
    <path id="Path_5866" data-name="Path 5866" d="M91.7,3.139A6.222,6.222,0,0,0,86.412,0c-.094,0-.188,0-.282,0a6.222,6.222,0,0,0-5.287,3.138,6.383,6.383,0,0,0-.083,6.307l4.546,8.321.006.011a1.105,1.105,0,0,0,1.917,0l.006-.011,4.546-8.321A6.383,6.383,0,0,0,91.7,3.139ZM86.271,8.307a2.578,2.578,0,1,1,2.578-2.578A2.581,2.581,0,0,1,86.271,8.307Z" transform="translate(0)" fill="#abafc7"/>
  </g>
</svg>
