<svg id="Group_10231" data-name="Group 10231" xmlns="http://www.w3.org/2000/svg" width="100.228" height="14.207" viewBox="0 0 100.228 14.207">
  <path id="Path_80" data-name="Path 80" d="M14.859,16.38a.415.415,0,0,0-.333-.281l-4.642-.66L7.8,11.24a.414.414,0,0,0-.37-.229h0a.411.411,0,0,0-.37.232L4.995,15.454l-4.642.69a.415.415,0,0,0-.333.281.408.408,0,0,0,.107.421L3.5,20.112l-.779,4.624a.415.415,0,0,0,.406.483.392.392,0,0,0,.192-.049l4.144-2.2,4.156,2.171a.422.422,0,0,0,.189.046h0a.414.414,0,0,0,.412-.412.322.322,0,0,0-.012-.095l-.8-4.6L14.749,16.8A.4.4,0,0,0,14.859,16.38Z" transform="translate(42.674 -11.011)" fill="#ffc400"/>
  <path id="Path_2513" data-name="Path 2513" d="M14.859,16.38a.415.415,0,0,0-.333-.281l-4.642-.66L7.8,11.24a.414.414,0,0,0-.37-.229h0a.411.411,0,0,0-.37.232L4.995,15.454l-4.642.69a.415.415,0,0,0-.333.281.408.408,0,0,0,.107.421L3.5,20.112l-.779,4.624a.415.415,0,0,0,.406.483.392.392,0,0,0,.192-.049l4.144-2.2,4.156,2.171a.422.422,0,0,0,.189.046h0a.414.414,0,0,0,.412-.412.322.322,0,0,0-.012-.095l-.8-4.6L14.749,16.8A.4.4,0,0,0,14.859,16.38Z" transform="translate(85.348 -11.011)" fill="#ffc400"/>
  <path id="Path_81" data-name="Path 81" d="M14.859,16.38a.415.415,0,0,0-.333-.281l-4.642-.66L7.8,11.24a.414.414,0,0,0-.37-.229h0a.411.411,0,0,0-.37.232L4.995,15.454l-4.642.69a.415.415,0,0,0-.333.281.408.408,0,0,0,.107.421L3.5,20.112l-.779,4.624a.415.415,0,0,0,.406.483.392.392,0,0,0,.192-.049l4.144-2.2,4.156,2.171a.422.422,0,0,0,.189.046h0a.414.414,0,0,0,.412-.412.322.322,0,0,0-.012-.095l-.8-4.6L14.749,16.8A.4.4,0,0,0,14.859,16.38Z" transform="translate(21.337 -11.011)" fill="#ffc400"/>
  <path id="Path_2514" data-name="Path 2514" d="M14.859,16.38a.415.415,0,0,0-.333-.281l-4.642-.66L7.8,11.24a.414.414,0,0,0-.37-.229h0a.411.411,0,0,0-.37.232L4.995,15.454l-4.642.69a.415.415,0,0,0-.333.281.408.408,0,0,0,.107.421L3.5,20.112l-.779,4.624a.415.415,0,0,0,.406.483.392.392,0,0,0,.192-.049l4.144-2.2,4.156,2.171a.422.422,0,0,0,.189.046h0a.414.414,0,0,0,.412-.412.322.322,0,0,0-.012-.095l-.8-4.6L14.749,16.8A.4.4,0,0,0,14.859,16.38Z" transform="translate(64.011 -11.011)" fill="#ffc400"/>
  <path id="Path_82" data-name="Path 82" d="M14.859,16.38a.415.415,0,0,0-.333-.281l-4.642-.66L7.8,11.24a.414.414,0,0,0-.37-.229h0a.411.411,0,0,0-.37.232L4.995,15.454l-4.642.69a.415.415,0,0,0-.333.281.408.408,0,0,0,.107.421L3.5,20.112l-.779,4.624a.415.415,0,0,0,.406.483.392.392,0,0,0,.192-.049l4.144-2.2,4.156,2.171a.422.422,0,0,0,.189.046h0a.414.414,0,0,0,.412-.412.322.322,0,0,0-.012-.095l-.8-4.6L14.749,16.8A.4.4,0,0,0,14.859,16.38Z" transform="translate(0 -11.011)" fill="#ffc400"/>
</svg>
