<svg xmlns="http://www.w3.org/2000/svg" width="28.627" height="27.333" viewBox="0 0 28.627 27.333">
  <path id="Path_82" data-name="Path 82" d="M28.588,21.34a.8.8,0,0,0-.64-.541l-8.931-1.269L15,11.452a.8.8,0,0,0-.711-.441h0a.791.791,0,0,0-.711.447L9.61,19.56.679,20.888a.8.8,0,0,0-.64.541.785.785,0,0,0,.206.811L6.725,28.52l-1.5,8.9a.8.8,0,0,0,.781.928.754.754,0,0,0,.37-.094l7.973-4.225,8,4.178a.811.811,0,0,0,.364.088h0a.8.8,0,0,0,.793-.793.62.62,0,0,0-.024-.182l-1.545-8.843,6.44-6.316A.777.777,0,0,0,28.588,21.34Z" transform="translate(0 -11.011)" fill="#ffc400"/>
</svg>
