<svg xmlns="http://www.w3.org/2000/svg" width="14.903" height="12.133" viewBox="0 0 14.903 12.133">
  <path id="Path_6" data-name="Path 6" d="M28.1,18.638a5.92,5.92,0,0,1-1.753.491,3.02,3.02,0,0,0,1.332-1.683,6.453,6.453,0,0,1-1.929.736,3.1,3.1,0,0,0-2.244-.982,3.053,3.053,0,0,0-3.051,3.051,4.317,4.317,0,0,0,.07.7,8.678,8.678,0,0,1-6.312-3.191A2.913,2.913,0,0,0,13.8,19.3a3.066,3.066,0,0,0,1.368,2.56,2.811,2.811,0,0,1-1.4-.386v.035a3.083,3.083,0,0,0,2.455,3.016,2.989,2.989,0,0,1-.807.105,2.726,2.726,0,0,1-.561-.07A3.064,3.064,0,0,0,17.723,26.7,6.18,6.18,0,0,1,13.936,28a5.179,5.179,0,0,1-.736-.035,8.71,8.71,0,0,0,13.4-7.329v-.386A6.56,6.56,0,0,0,28.1,18.638Zm0,0" transform="translate(-13.2 -17.2)" fill="#fff"/>
</svg>
